<svg preserveAspectRatio="none" width="100%" height="100%" overflow="visible" style="display: block;" viewBox="0 0 33 22" fill="none" xmlns="http://www.w3.org/2000/svg">
<g id="Group">
<path id="Vector" d="M33 4.22297V4.21266H31.1815H31.1807V1.57562L30.0095 1.14759C27.9284 0.386461 25.746 0 23.5194 0C21.2927 0 19.1104 0.386461 17.0293 1.14759L16.5 1.34075L15.9708 1.14765C13.8899 0.386525 11.7078 6.44177e-05 9.48093 6.44177e-05C7.25426 6.44177e-05 5.07195 0.386525 2.99108 1.14765L1.81958 1.57569V4.20692V4.21272H0.0213984H0.0105703H0V20.0704C0 20.4252 0.287525 20.7125 0.642275 20.7125H14.9657L15.3852 21.7533H17.6148L18.0346 20.7125H32.358C32.7127 20.7125 33 20.4252 33 20.0704V4.27137V4.22297ZM17.6418 17.5341C17.6418 13.0937 17.6448 8.65309 17.6418 4.21266V2.82137C19.5355 2.12876 21.5273 1.7838 23.5193 1.7838C25.5111 1.7838 27.5031 2.12869 29.3969 2.82137V4.21266V13.8323L29.3934 17.5363C27.5006 16.8445 25.5098 16.5001 23.5193 16.5001C21.7152 16.5001 19.912 16.7861 18.1808 17.3541C18.0006 17.412 17.8205 17.4703 17.6418 17.5341ZM15.3585 4.21266V13.7318L15.355 17.5363C13.4622 16.8445 11.4717 16.5001 9.48093 16.5001C7.67746 16.5001 5.87484 16.7858 4.1444 17.3533C3.96361 17.4114 3.78282 17.4701 3.60338 17.5341V4.21266V2.82137C5.49714 2.12876 7.4892 1.7838 9.48093 1.7838C11.4729 1.7838 13.4647 2.12869 15.3585 2.82137V4.21266Z" fill="var(--fill-0, #8A8A8A)"/>
</g>
</svg>
