<svg preserveAspectRatio="none" width="100%" height="100%" overflow="visible" style="display: block;" viewBox="0 0 64 61" fill="none" xmlns="http://www.w3.org/2000/svg">
<g id="Group">
<path id="Vector" d="M50.7955 29.069V29.044C49.063 30.5285 47.4355 31.9359 46.1222 33.0731V52.4973C46.1222 54.3381 44.6467 55.8326 42.8291 55.8326H21.8808C20.691 55.8326 19.5111 55.7068 18.3785 55.4758V49.3739V44.6793V44.0914C18.3688 42.9057 17.4268 41.9611 16.2561 41.9611H5.03489C4.80626 40.8042 4.68263 39.6185 4.68263 38.4135V8.06798C4.68263 6.23649 6.15768 4.74254 7.97573 4.74254H42.8292C44.6468 4.74254 46.1223 6.23649 46.1223 8.06798V8.40513L46.1083 8.65214C46.1131 8.64746 46.1176 8.64328 46.1223 8.63809V8.66581C47.3404 7.34506 48.6351 6.09216 49.9577 4.95448C50.0056 4.9065 50.0628 4.86788 50.1102 4.82927C48.892 1.99519 46.0744 0 42.8292 0H7.9756C3.57835 0 0 3.62436 0 8.06798V38.4135C0 39.9272 0.161755 41.4502 0.456763 42.9249C2.23669 51.562 8.88925 58.3097 17.436 60.1124C18.8828 60.4113 20.3768 60.5652 21.8808 60.5652H42.8291C47.2264 60.5652 50.7955 56.9504 50.7955 52.4971V38.2168L50.8076 29.0588C50.8033 29.0619 50.7997 29.0657 50.7955 29.069Z" fill="url(#paint0_linear_2034_2217)"/>
<path id="Vector_2" d="M38.1773 33.589C37.6038 33.1503 36.9044 32.5211 36.2083 31.8173C35.5121 31.1117 34.8904 30.4044 34.4576 29.8249C34.3666 29.703 34.2471 29.5369 34.1291 29.3491C34.1156 29.3251 34.104 29.3095 34.0905 29.2842L34.0896 29.2851C34.0887 29.2832 34.0874 29.2818 34.0864 29.2799C34.086 29.2802 34.0855 29.2808 34.0846 29.2821C34.0822 29.2778 34.0798 29.2747 34.0776 29.2704C31.1916 32.1452 28.0641 33.954 25.6735 35.0155C25.4454 37.1543 24.9342 39.2559 24.4062 41.0059C24.3889 41.0608 24.3722 41.1216 24.3551 41.1758C24.3481 41.1998 24.3406 41.2206 24.3337 41.244C24.0023 42.2833 23.6677 43.1729 23.3912 43.8281C23.1928 43.827 22.9859 43.8977 22.8248 44.061C22.552 44.3373 22.519 44.742 22.7169 45.0179C22.7286 45.0354 22.7374 45.0541 22.7482 45.0715C22.7509 45.0763 22.7514 45.0808 22.7542 45.0856L22.755 45.0842C22.7564 45.0856 22.7569 45.0875 22.7583 45.0894L22.7601 45.0875C22.7634 45.0913 22.7643 45.0955 22.7675 45.0994L23.8503 44.0032C23.8414 43.9938 23.8317 43.9857 23.8229 43.9773L28.9921 38.533C28.7029 37.9464 28.8363 37.1698 29.3703 36.6296C30.0215 35.9706 31.0206 35.9142 31.6015 36.5025C32.1829 37.0908 32.1272 38.1019 31.4756 38.7609C30.9421 39.3013 30.1754 39.4362 29.5953 39.144L26.417 42.235L23.4418 45.1117L23.4599 45.1103L23.4464 45.124C23.4572 45.1197 23.4687 45.1146 23.4804 45.1094L23.4967 45.1089L23.1519 45.4586L23.1502 45.4596V45.46L23.137 45.4737C23.4043 45.7439 23.8629 45.717 24.1618 45.4153C24.3506 45.2241 24.4296 44.9704 24.3979 44.7408C26.2918 44.0085 29.6373 42.8784 33.0702 42.5031C34.0108 40.3361 35.5481 37.5723 37.8963 34.9208C38.1566 34.629 38.4216 34.3366 38.7026 34.0477C38.7166 34.0346 38.7277 34.0195 38.7421 34.0063C38.7421 34.0063 38.7417 34.0058 38.7412 34.0058C38.7426 34.0046 38.744 34.003 38.7455 34.0016C38.7445 34.0006 38.7441 34.0003 38.7432 33.9997C38.7465 33.9965 38.7487 33.9937 38.752 33.9899C38.5199 33.8507 38.3195 33.6987 38.1773 33.589Z" fill="url(#paint1_linear_2034_2217)"/>
<path id="Vector_3" d="M62.9872 4.80244L62.9207 4.73458C62.2423 4.06483 61.342 3.71084 60.3168 3.71084C59.7493 3.71084 59.1336 3.81808 58.4858 4.029C56.798 4.57873 54.7592 5.87834 52.4249 7.88872C50.8099 9.27962 49.2559 10.845 47.8087 12.5381C47.5318 12.8564 35.7398 26.8347 35.2857 27.3553C34.4846 28.2166 35.2914 29.2992 35.5563 29.6546C35.8834 30.0928 36.35 30.6247 36.8705 31.1513C37.3911 31.6784 37.9167 32.1506 38.3498 32.4815C38.6356 32.7004 39.1686 33.107 39.7657 33.1066C40.0884 33.107 40.376 32.9894 40.613 32.7641C41.015 32.404 55.2766 20.1017 55.2766 20.1017C56.951 18.6349 58.497 17.0615 59.8722 15.4269C61.859 13.0649 63.142 11.001 63.6858 9.29278C64.4301 6.95259 63.7167 5.55891 62.9872 4.80244ZM43.5165 26.8888L39.624 30.3559C39.3889 30.1629 39.0385 29.8546 38.5951 29.4061C38.1527 28.9585 37.8478 28.6031 37.6568 28.365L41.0874 24.4287L43.3627 26.7322L43.5165 26.8888Z" fill="url(#paint2_linear_2034_2217)"/>
</g>
<defs>
<linearGradient id="paint0_linear_2034_2217" x1="0" y1="30.2826" x2="50.8076" y2="30.2826" gradientUnits="userSpaceOnUse">
<stop stop-color="#BF5331"/>
<stop offset="1" stop-color="#EF6A5A"/>
</linearGradient>
<linearGradient id="paint1_linear_2034_2217" x1="22.5904" y1="37.4653" x2="38.752" y2="37.4653" gradientUnits="userSpaceOnUse">
<stop stop-color="#BF5331"/>
<stop offset="1" stop-color="#EF6A5A"/>
</linearGradient>
<linearGradient id="paint2_linear_2034_2217" x1="34.9401" y1="18.4087" x2="64.001" y2="18.4087" gradientUnits="userSpaceOnUse">
<stop stop-color="#BF5331"/>
<stop offset="1" stop-color="#EF6A5A"/>
</linearGradient>
</defs>
</svg>
