<svg preserveAspectRatio="none" width="100%" height="100%" overflow="visible" style="display: block;" viewBox="0 0 33 27" fill="none" xmlns="http://www.w3.org/2000/svg">
<g id="Group">
<path id="Vector" d="M11.1036 23.5873C10.6964 23.9945 10.6964 24.6545 11.1016 25.0594L11.306 25.2639C11.7129 25.6707 12.373 25.6707 12.7799 25.2639L13.01 25.0317L11.3355 23.3574L11.1036 23.5873Z" fill="var(--fill-0, #8A8A8A)"/>
<path id="Vector_2" d="M8.25857 21.3605C7.85168 21.7653 7.85168 22.4274 8.25857 22.8346L8.46102 23.037C8.87036 23.4461 9.53056 23.4441 9.93539 23.037C9.93539 23.037 10.1348 22.8373 10.4669 22.5052L10.4676 22.5042C10.4704 22.5015 10.4724 22.4997 10.4752 22.4969L8.79843 20.8206L8.25857 21.3605Z" fill="var(--fill-0, #8A8A8A)"/>
<path id="Vector_3" d="M6.28817 18.3102L6.05601 18.5401C5.64919 18.947 5.64919 19.6071 6.05402 20.0119L6.25846 20.2166C6.66581 20.6238 7.32568 20.6238 7.73283 20.2166L7.96241 19.9847L6.28817 18.3102Z" fill="var(--fill-0, #8A8A8A)"/>
<path id="Vector_4" d="M25.9165 6.43507e-05L21.6331 4.33177L18.4633 5.37359L17.4532 5.70642H17.4512L16.4411 6.03977H16.4388L9.00101 8.48596C8.87436 8.53031 8.75853 8.59979 8.6614 8.68841C8.611 8.73269 8.56672 8.78135 8.52844 8.83594C8.48641 8.88886 8.4527 8.94571 8.42319 9.00694C8.31993 9.22621 8.29679 9.47293 8.35777 9.70509C8.36434 9.73229 8.37233 9.76194 8.3829 9.78921L8.49466 10.1034C8.54552 10.2428 8.62357 10.3693 8.73082 10.477V10.479C8.77968 10.5274 8.83433 10.5717 8.88918 10.6074C8.97355 10.6623 9.06617 10.7066 9.16137 10.7341C9.18451 10.7424 9.20971 10.7489 9.23491 10.753C9.3069 10.7701 9.38044 10.7784 9.45643 10.7784C9.4922 10.7784 9.52591 10.7761 9.56194 10.7721C9.59346 10.7701 9.62317 10.7657 9.65488 10.7595C9.66945 10.7575 9.68634 10.7529 9.70123 10.7489C9.73494 10.7423 9.76665 10.7318 9.7981 10.7215L13.0709 10.0107H13.0732C13.0963 10.0044 13.1172 9.9981 13.1406 9.9961C13.149 9.99384 13.1575 9.99185 13.166 9.99185L13.1721 9.98959L18.8878 8.75093L21.4571 11.3195L21.8829 11.7475L21.8941 11.7588L21.8753 11.7548L26.616 16.4934C27.5544 15.5065 28.1765 14.2833 28.4252 12.9419L28.6997 11.4302L33 7.08359L25.9165 6.43507e-05Z" fill="var(--fill-0, #8A8A8A)"/>
<path id="Vector_5" d="M25.7239 17.3916L18.486 10.132L13.434 11.2275L13.3431 11.2486H13.3325L13.2925 11.2569L10.1313 11.9445C9.98372 11.9886 9.83194 12.0183 9.67809 12.0309C9.60409 12.0395 9.53055 12.0435 9.4565 12.0435C8.84497 12.0435 8.26914 11.8033 7.83711 11.3707C7.6007 11.1345 7.42171 10.8541 7.30338 10.5273L7.18955 10.209C6.9891 9.63748 7.02081 9.01963 7.28217 8.4607C7.54379 7.91433 8.00353 7.49893 8.57504 7.29448L8.58986 7.28791L8.60649 7.28391L11.8163 6.22798L14.4111 5.38325L14.3978 5.379L14.4144 5.37346L11.2471 4.33177L7.16287 0.082629L7.09087 0.0073478V0.00754105L7.08353 0L0 7.08359L4.18036 11.4302L4.45635 12.9418C4.71365 14.3444 5.38435 15.6182 6.39446 16.6282L7.15778 17.3896L8.83659 19.0681L9.69265 19.9264L11.3691 21.6029L12.2295 22.4612L13.9062 24.1378L15.5067 25.7383C15.7048 25.9366 15.9642 26.0379 16.2258 26.0379C16.2976 26.0379 16.3714 26.0293 16.441 26.0147C16.6263 25.9744 16.8016 25.8818 16.9471 25.7383L17.1813 25.5041C17.5796 25.1058 17.5796 24.4603 17.1813 24.062L12.8393 19.7199C12.5754 19.4561 12.6071 19.007 12.9339 18.7856C13.0331 18.7182 13.145 18.6887 13.2587 18.6887C13.4254 18.6887 13.5921 18.7562 13.7165 18.8786L13.9063 19.0682L14.7643 19.9265L17.2992 22.4613L18.976 24.1378L20.1019 25.264C20.3043 25.4685 20.5722 25.5697 20.8381 25.5697C21.1057 25.5697 21.3714 25.4685 21.5737 25.264L21.7785 25.0596C22.1856 24.6547 22.1856 23.9946 21.7785 23.5875L18.976 20.785L18.1155 19.9265L16.4412 18.2502L15.5806 17.3916L15.3908 17.2018C15.1546 16.9636 15.14 16.5779 15.3613 16.3438L15.3761 16.3287C15.49 16.2129 15.644 16.1496 15.8062 16.1496C15.8082 16.1496 15.8082 16.1496 15.8104 16.1496C15.9708 16.1496 16.1224 16.2129 16.2364 16.3266C16.2933 16.3835 16.3631 16.4533 16.4411 16.5311C16.6581 16.7506 16.9555 17.0457 17.2992 17.3916C17.7865 17.8787 18.3684 18.4631 18.9737 19.0681L19.834 19.9284C20.4309 20.5254 21.015 21.1074 21.5108 21.6029C22.3521 22.4446 22.9446 23.037 22.9446 23.037C23.1493 23.2417 23.4149 23.3429 23.6826 23.3429C23.9485 23.3429 24.2143 23.2417 24.4188 23.037L24.6232 22.8346C25.0281 22.4275 25.0281 21.7654 24.6232 21.3605L23.1871 19.9265L17.7147 14.4585C17.5797 14.3362 17.5757 14.1292 17.7021 14.0008L17.9111 13.7918C18.0289 13.6739 18.185 13.6148 18.3411 13.6148C18.4972 13.6148 18.6513 13.674 18.7691 13.7918L24.0457 19.0681L24.4462 19.4686C24.6908 19.7134 25.0197 19.8423 25.3446 19.8423C25.5765 19.8423 25.8066 19.7769 26.0005 19.6399C26.3504 19.3951 26.5402 18.988 26.5002 18.5537C26.4748 18.2647 26.3315 17.9988 26.1268 17.7944L25.7239 17.3916Z" fill="var(--fill-0, #8A8A8A)"/>
</g>
</svg>
