<svg preserveAspectRatio="none" width="100%" height="100%" overflow="visible" style="display: block;" viewBox="0 0 79 48" fill="none" xmlns="http://www.w3.org/2000/svg">
<g id="Group">
<path id="Vector" d="M71.5592 0.00207727L62.0413 3.06669L69.4842 26.1819L79.002 23.1173L71.5592 0.00207727Z" fill="url(#paint0_linear_2034_2212)"/>
<path id="Vector_2" d="M58.9721 6.08315C58.5274 4.73306 57.2742 3.87054 55.9187 3.87054C55.6185 3.87054 55.3136 3.91343 55.0135 3.99953L47.7561 6.13808L46.0883 6.30858L44.5629 5.96512C43.5021 5.14549 42.19 4.69032 40.7972 4.69032C40.3631 4.69032 39.9239 4.73321 39.5008 4.82949C39.4796 4.82949 39.4634 4.83489 39.4417 4.84029L34.4391 5.96496L32.2965 6.44714L23.9879 3.99953C23.6877 3.91343 23.3828 3.87054 23.0827 3.87054C21.7278 3.87054 20.4686 4.73306 20.0293 6.08315L14.1853 23.9152C13.9231 24.7241 13.987 25.6131 14.3782 26.3738C14.7639 27.1345 15.4443 27.7131 16.2587 27.9759L19.4513 29.0041L19.6008 29.0523C19.7003 29.0933 19.8028 29.1319 19.9011 29.1649C20.0402 29.6201 20.2385 30.0595 20.5062 30.4662C20.6781 30.729 20.8818 30.9803 21.112 31.2113C21.1868 31.2914 21.2723 31.3715 21.353 31.4469C21.8773 31.9074 22.4886 32.245 23.1365 32.4588C23.1757 32.592 23.2522 32.7149 23.3035 32.8452C23.3445 32.9506 23.3891 33.0536 23.4372 33.1556C23.5536 33.4016 23.6904 33.6347 23.8501 33.8626C23.9291 33.9746 24.0121 34.0839 24.1002 34.1894C24.1859 34.2919 24.2462 34.4082 24.3419 34.5051C24.9151 35.0837 25.6059 35.5068 26.3666 35.7478C26.592 36.4977 26.9933 37.2053 27.5773 37.7996C28.1343 38.3727 28.8256 38.7905 29.5755 39.0316C29.9196 39.1448 30.2752 39.2178 30.6361 39.2522L35.3494 44.7208C36.3511 46.0437 37.8623 46.8899 39.5009 47.072C39.7203 47.0991 39.9402 47.1093 40.1598 47.1093C41.4242 47.1093 42.6345 46.724 43.6682 45.9845C44.4932 45.3951 45.1309 44.6296 45.554 43.7773C46.5285 43.6489 47.4501 43.2849 48.259 42.7063C49.0733 42.1221 49.7212 41.367 50.1551 40.4937C51.125 40.3653 52.0459 40.0013 52.8547 39.4281C53.6853 38.8337 54.3176 38.0672 54.7407 37.2161C55.7152 37.0871 56.6368 36.7231 57.4457 36.1444C59.7493 34.5002 60.5527 31.5215 59.551 29.004L62.7436 27.9757C63.5578 27.713 64.2322 27.1342 64.6234 26.3737C65.0091 25.613 65.0792 24.7241 64.8163 23.9151L58.9721 6.08315ZM39.1028 32.667L39.0883 32.6464L37.3633 33.8742L37.3622 33.8748L37.3417 33.8893L42.9072 41.6782C42.7577 42.3371 42.3877 42.9476 41.7987 43.3707C41.3003 43.7246 40.727 43.8956 40.1593 43.8956C39.2812 43.8956 38.4131 43.4835 37.8618 42.712L36.845 41.5324L34.1021 38.2463C34.1616 38.2022 34.2213 38.159 34.278 38.1107C34.3425 38.0674 34.3955 38.0143 34.4546 37.9606L35.1079 37.4247C36.0843 36.6304 36.5383 35.3525 36.2664 34.1243C36.1808 33.7398 36.0549 33.3835 35.8686 33.134C35.3172 32.3895 34.4654 31.9985 33.6031 31.9985C33.0189 31.9985 32.4301 32.1805 31.9209 32.5554L31.5827 32.8044L31.2971 32.9901C32.2633 32.186 32.6435 30.8347 32.1252 29.6787C31.4332 28.1351 29.6859 27.6053 28.3082 28.2743C28.1612 28.3388 28.0178 28.4116 27.8779 28.4966C28.4414 27.5474 28.424 26.3166 27.7242 25.3746C26.7941 24.124 25.0263 23.8636 23.7758 24.7929L21.6712 26.3431L21.1328 26.1708L17.2447 24.9188L17.2387 24.9169L23.0827 7.08485L31.6697 9.60791L32.1891 9.76344L36.2203 8.85633L39.1849 8.20844C37.8541 10.0575 35.2487 13.3232 33.9299 15.0529C30.85 19.0924 31.6697 23.1993 35.9544 21.9776C40.8655 20.5769 41.7496 14.5502 45.1792 14.3163L46.4812 14.2651L56.2349 29.5935C56.3265 29.7219 56.4068 29.8557 56.4711 29.9895C57.0709 31.2112 56.7225 32.7162 55.5814 33.5306C55.0885 33.879 54.5262 34.0501 53.9638 34.0555L53.4551 33.3429L48.2753 26.0843L46.5551 27.3176L46.5545 27.3181L46.5339 27.3326L52.0193 35.0143L52.094 35.1209C51.9493 35.7748 51.5799 36.3855 50.9857 36.8086C50.7126 37.007 50.4179 37.1462 50.107 37.2263C49.866 37.2962 49.6194 37.3335 49.3735 37.3335L43.6844 29.3679L41.9697 30.5884L41.9589 30.5961L41.9384 30.6107L47.4984 38.3997C47.3537 39.0586 46.9843 39.669 46.3948 40.0922C45.9024 40.4406 45.3395 40.6117 44.7771 40.6117L39.1254 32.6978L39.1028 32.667Z" fill="url(#paint1_linear_2034_2212)"/>
<path id="Vector_3" d="M16.954 3.08841H16.9534L16.9612 3.0648L7.44359 0L0 23.1143L9.51811 26.1792L16.9366 3.14071L16.954 3.08841Z" fill="url(#paint2_linear_2034_2212)"/>
</g>
<defs>
<linearGradient id="paint0_linear_2034_2212" x1="65.7628" y1="14.6243" x2="75.2806" y2="11.5597" gradientUnits="userSpaceOnUse">
<stop stop-color="#BF5331"/>
<stop offset="1" stop-color="#EF6A5A"/>
</linearGradient>
<linearGradient id="paint1_linear_2034_2212" x1="14.0273" y1="25.4899" x2="64.973" y2="25.4899" gradientUnits="userSpaceOnUse">
<stop stop-color="#BF5331"/>
<stop offset="1" stop-color="#EF6A5A"/>
</linearGradient>
<linearGradient id="paint2_linear_2034_2212" x1="0" y1="13.0896" x2="16.9612" y2="13.0896" gradientUnits="userSpaceOnUse">
<stop stop-color="#BF5331"/>
<stop offset="1" stop-color="#EF6A5A"/>
</linearGradient>
</defs>
</svg>
