<svg preserveAspectRatio="none" width="100%" height="100%" overflow="visible" style="display: block;" viewBox="0 0 62 78" fill="none" xmlns="http://www.w3.org/2000/svg">
<g id="Group">
<path id="Vector" d="M61.3772 65.9415L60.8162 62.7362C60.3343 59.9768 58.39 57.5782 55.6156 56.3207L43.8048 50.9628C42.3547 50.3063 41.9401 48.2305 41.8983 48.1182C41.7704 47.9315 41.5539 47.819 41.2214 47.819C41.2115 47.819 41.2013 47.819 41.1915 47.819C40.9085 47.8545 40.6767 48.0437 40.6002 48.3027L39.2373 53.0257L30.7216 68.2835L22.2273 53.0764L20.8415 48.3027C20.7678 48.045 20.5354 47.8545 20.1464 47.8119C19.9014 47.8119 19.6763 47.9266 19.5064 48.2093C19.5024 48.2307 19.0923 50.3041 17.6382 50.9628L5.82553 56.3207C3.0522 57.5792 1.10852 59.9767 0.626341 62.7362L0.0653175 65.9415C-0.155018 67.1976 0.158513 68.9529 1.36758 69.84C1.50985 69.9453 1.68837 70.1014 1.91441 70.3001C4.08845 72.2044 10.7042 78 30.7216 78C50.7352 78 57.3527 72.2044 59.5273 70.3001C59.7537 70.1027 59.9328 69.9453 60.0754 69.84C61.2849 68.9517 61.5981 67.1964 61.3772 65.9415Z" fill="url(#paint0_linear_2003_2655)"/>
<path id="Vector_2" d="M36.3499 19.0937C39.2121 24.3972 43.1319 31.6631 44.8427 32.7181L45.1674 32.918L46.3573 23.7443C46.6835 19.7145 45.3714 15.9001 42.6631 13.0035C39.7028 9.83714 35.3502 8.02151 30.7216 8.02151C26.0927 8.02151 21.74 9.83714 18.7797 13.0035C16.0711 15.8989 14.7587 19.7145 15.0855 23.7537L16.168 32.8353L16.5302 32.445C17.2771 31.6418 18.6231 30.8033 20.3268 29.7412C24.2672 27.2857 30.1898 23.5955 34.8415 16.3154C35.2723 17.096 35.7854 18.0469 36.3499 19.0937Z" fill="url(#paint1_linear_2003_2655)"/>
<path id="Vector_3" d="M6.97643 36.9715C7.17593 37.7912 7.91085 38.3637 8.7635 38.3637C8.90761 38.3637 9.05188 38.3458 9.19321 38.3128L12.2909 37.5782C12.8818 37.4386 13.3602 37.0163 13.5748 36.4545L13.7024 36.4627L13.6444 36.2333C13.7141 35.9447 13.716 35.662 13.6501 35.3899L12.0352 28.7911C11.6479 26.4906 11.4515 24.5237 11.4515 22.9422C11.4515 12.4509 20.0961 3.916 30.7216 3.916C41.3468 3.916 49.9913 12.4509 49.9913 22.9422C49.9913 24.5225 49.7949 26.4906 49.3794 28.8644L47.7927 35.3899C47.7694 35.487 47.7551 35.5851 47.7495 35.688L47.6863 35.8276C47.6653 35.8738 45.5297 40.4334 38.896 41.719C38.5516 41.0911 37.8873 40.6947 37.153 40.6947H33.1561C32.0628 40.6947 31.1733 41.5735 31.1733 42.6534V44.1969C31.1733 45.2767 32.0628 46.1556 33.1561 46.1556H37.153C37.9844 46.1556 38.7266 45.6327 39.0095 44.8652C42.9799 44.1934 45.6354 42.5435 47.1697 41.2684C48.7594 39.9485 49.7097 38.5964 50.176 37.8218L52.2499 38.3126C52.3909 38.3457 52.5354 38.3635 52.6795 38.3635C53.5321 38.3635 54.2667 37.791 54.4662 36.9714L56.053 30.4459C56.2892 29.4724 55.6798 28.4907 54.6943 28.2566L53.5488 27.9857C53.8207 26.0767 53.9586 24.3806 53.9586 22.9422C53.9583 10.2926 43.5343 0 30.7216 0C17.909 0 7.48499 10.2926 7.48499 22.9425C7.48499 24.3808 7.62278 26.0768 7.89465 27.9848L6.74822 28.2569C5.76257 28.491 5.15341 29.4727 5.3901 30.4462L6.97643 36.9715Z" fill="url(#paint2_linear_2003_2655)"/>
</g>
<defs>
<linearGradient id="paint0_linear_2003_2655" x1="3.50177e-07" y1="62.9059" x2="61.4428" y2="62.9059" gradientUnits="userSpaceOnUse">
<stop stop-color="#BF5331"/>
<stop offset="1" stop-color="#EF6A5A"/>
</linearGradient>
<linearGradient id="paint1_linear_2003_2655" x1="15.0364" y1="20.4697" x2="46.4063" y2="20.4697" gradientUnits="userSpaceOnUse">
<stop stop-color="#BF5331"/>
<stop offset="1" stop-color="#EF6A5A"/>
</linearGradient>
<linearGradient id="paint2_linear_2003_2655" x1="5.33906" y1="23.0778" x2="56.1039" y2="23.0778" gradientUnits="userSpaceOnUse">
<stop stop-color="#BF5331"/>
<stop offset="1" stop-color="#EF6A5A"/>
</linearGradient>
</defs>
</svg>
