<svg preserveAspectRatio="none" width="100%" height="100%" overflow="visible" style="display: block;" viewBox="0 0 303 5" fill="none" xmlns="http://www.w3.org/2000/svg">
<path id="Vector 6" d="M302 1C302.276 1 302.5 0.776142 302.5 0.5C302.5 0.223858 302.276 0 302 0V0.5V1ZM151 3.5L150.732 3.92195L151 4.09249L151.268 3.92195L151 3.5ZM155.719 0.5V0H155.573L155.45 0.0780542L155.719 0.5ZM146.281 0.5L146.55 0.0780542L146.427 0H146.281V0.5ZM226.5 0.5V1H302V0.5V0H226.5V0.5ZM188.75 0.5V1H226.5V0.5V0H188.75V0.5ZM169.875 0.5V1H188.75V0.5V0H169.875V0.5ZM160.438 0.5V1H169.875V0.5V0H160.438V0.5ZM151 3.5L151.268 3.92195L155.987 0.921946L155.719 0.5L155.45 0.0780542L150.732 3.07805L151 3.5ZM155.719 0.5V1H160.438V0.5V0H155.719V0.5ZM0 0.5V1H75.5V0.5V0H0V0.5ZM75.5 0.5V1H113.25V0.5V0H75.5V0.5ZM113.25 0.5V1H132.125V0.5V0H113.25V0.5ZM132.125 0.5V1H141.563V0.5V0H132.125V0.5ZM141.563 0.5V1H146.281V0.5V0H141.563V0.5ZM146.281 0.5L146.013 0.921946L150.732 3.92195L151 3.5L151.268 3.07805L146.55 0.0780542L146.281 0.5Z" fill="var(--stroke-0, white)"/>
</svg>
