<svg viewBox="0 0 53 53" fill="none" xmlns="http://www.w3.org/2000/svg">
<g id="Group 62" transform="translate(0.5, 7.5)">
<path id="Vector" d="M15.2681 37.8725C14.7273 37.8161 14.4616 37.4371 14.4389 37.0872C14.4106 36.6535 14.7203 36.2797 15.1925 36.1777L15.2297 36.1697L19.2292 36.0962L19.7688 33.1448L3.66592 33.1995C1.68659 33.1659 0.181313 31.886 0.00125891 30.0875L0 30.0727L0.00314751 3.08699L0.00440689 3.07217C0.156131 1.61672 1.24905 0.453047 2.78895 0.107135L2.82861 0.098017H2.86953C8.08291 0.0302024 13.6041 0 20.7704 0C24.1184 0 27.5098 0.00626778 30.7892 0.0125364C34.0749 0.0188049 37.4688 0.0250736 40.8068 0.0250736C43.5812 0.0250736 46.0535 0.0205152 48.3633 0.0113972H48.3942L48.4244 0.0159563C49.8869 0.238206 50.8211 0.867343 51.2807 1.93813C51.6742 2.85619 51.6622 3.93952 51.6496 4.98637C51.5703 11.9069 51.5766 18.955 51.5835 25.7718C51.5848 27.1663 51.5861 28.5551 51.5867 29.9433C51.5892 30.7189 51.1643 31.5686 50.4497 32.2171C49.8019 32.8052 48.9948 33.1426 48.2368 33.1426H31.7568L32.3272 36.1441L36.4408 36.156L36.4905 36.1697C36.9022 36.2814 37.1629 36.6119 37.1541 37.012C37.1459 37.4092 36.867 37.7403 36.4609 37.8354L36.4168 37.8457L15.2888 37.8742L15.2681 37.8719V37.8725ZM30.3945 36.1441L29.741 33.1528L21.7129 33.1967L21.1236 36.1367L30.3938 36.1441H30.3945ZM40.3887 31.3543C41.2109 31.3543 42.0583 31.3748 42.9554 31.3965C43.8494 31.4181 44.7686 31.4403 45.6556 31.4403C46.6025 31.4403 47.3963 31.4141 48.0826 31.3611C48.6574 31.3161 49.6111 30.7508 49.6111 30.2277V29.3831L1.97493 29.4395V30.0003C1.97493 30.8374 2.9073 31.4204 3.74336 31.4204C3.77232 31.4204 3.80191 31.4198 3.83087 31.4181H3.84535H6.21186C8.67595 31.4187 11.1419 31.4198 13.6079 31.4198C21.9785 31.4198 30.9825 31.4119 40.1105 31.3554C40.2024 31.3554 40.2956 31.3549 40.3887 31.3549V31.3543ZM8.1339 27.7105C8.13894 27.6359 8.1339 27.5447 8.12886 27.4615C8.12194 27.351 8.11501 27.2375 8.12572 27.1247C8.49905 23.0444 10.955 21.5491 14.7959 20.4601C14.9697 20.4111 15.2007 20.3655 15.445 20.3176C15.7711 20.2538 16.1746 20.1746 16.327 20.1011C16.4542 20.0241 16.6581 19.3579 16.7066 18.7539C15.817 17.9224 15.2441 17.042 15.0036 16.1359C14.9382 16.1165 14.8714 16.1 14.8022 16.0829C14.6121 16.0362 14.3968 15.9826 14.16 15.8561C13.21 15.3483 12.5584 14.0844 12.6434 12.915C12.702 12.1069 13.0923 11.4761 13.7464 11.125C13.0438 7.9081 14.5907 5.14935 17.8052 3.90703C18.691 3.56454 19.7688 3.37591 20.8397 3.37591C22.2102 3.37591 23.4662 3.68364 24.3772 4.24212C24.5125 4.32532 24.6523 4.44556 24.7876 4.56239C24.8657 4.62963 25.0105 4.75443 25.0552 4.77609C25.0999 4.79774 25.1779 4.81142 25.2604 4.82567C25.3624 4.84333 25.4896 4.86613 25.6168 4.91457C26.9187 5.41092 27.79 6.34893 28.2068 7.70351C28.5889 8.94526 28.492 10.2423 28.332 11.1444C29.3815 11.826 29.5162 13.0039 29.2846 13.8969C29.0252 14.8953 28.191 15.9661 26.8985 16.1678C26.6813 16.9753 26.3061 17.6711 25.7553 18.2917C25.6262 18.437 25.506 18.5311 25.4191 18.6C25.2636 18.722 25.2472 18.7351 25.2762 19.024C25.3108 19.3699 25.4405 19.7534 25.6268 20.064C28.8779 20.7615 32.3228 21.8927 33.3905 24.9307C33.6556 25.6835 33.8199 26.5999 33.8797 27.6553H49.6137C49.6199 26.2807 49.6262 24.9056 49.6325 23.5311C49.664 16.879 49.6968 10.0041 49.6772 3.23288C49.6092 2.66358 49.3933 2.26239 49.0338 2.04071C48.6995 1.83498 48.369 1.79338 47.9441 1.79338C47.8339 1.79338 47.7237 1.79623 47.6066 1.79908C47.4927 1.80193 47.363 1.80535 47.2358 1.80535C47.2125 1.80535 47.1898 1.80535 47.1666 1.80535C44.0068 1.77401 40.6015 1.75862 36.7555 1.75862C32.5929 1.75862 28.3604 1.77629 24.2676 1.79338C20.1742 1.81048 15.9411 1.82815 11.7772 1.82815C8.7282 1.82815 5.99277 1.81903 3.41536 1.79965C2.75558 1.82074 1.97619 2.52624 1.97619 3.10295V27.7117H8.13516L8.1339 27.7105ZM16.3018 21.9087C14.3111 22.3002 11.7822 23.102 10.773 24.7159C10.3783 25.3462 10.1309 26.3246 10.0383 26.9708C9.98606 27.3339 9.97095 27.555 9.96907 27.6855L32.0168 27.6541C31.93 26.752 31.8028 25.993 31.5044 25.2675C30.8408 23.6553 28.9553 22.5549 25.742 21.9058C24.7039 23.2154 22.9418 23.9938 21.0015 23.9938C19.0612 23.9938 17.3223 23.2165 16.3018 21.9093V21.9087ZM17.9103 21.0208C18.5644 21.8038 19.7027 22.2688 20.9801 22.2688C22.2574 22.2688 23.4051 21.7998 24.0504 21.0089C24.0183 20.9524 23.9818 20.8949 23.9434 20.8356C23.8597 20.704 23.774 20.5689 23.7092 20.4116C23.6821 20.3461 23.6532 20.2367 23.6041 20.0498C23.5896 19.9939 23.5713 19.9238 23.5518 19.8526C22.7573 20.2355 21.8274 20.4447 20.9064 20.4447C19.9853 20.4447 19.165 20.2561 18.4341 19.897C18.3183 20.2908 18.1231 20.6555 17.9103 21.0214V21.0208ZM14.7575 12.5993C14.6618 12.5993 14.6158 12.6255 14.5743 12.7036C14.3942 13.0409 14.5951 13.8741 14.8664 14.1847C15.0553 14.4001 15.2303 14.408 15.496 14.4206C15.8303 14.436 16.3358 14.4599 16.6424 15.0805C16.7979 15.3962 16.8942 15.6675 16.9868 15.9302C17.1599 16.4197 17.2959 16.8061 17.7586 17.3115C18.5846 18.2142 19.6983 18.7111 20.8938 18.7111C22.7302 18.7111 24.3941 17.5788 25.0325 15.8931C25.0665 15.8031 25.0936 15.6897 25.1219 15.57C25.2189 15.162 25.3813 14.4793 26.1733 14.3887C26.2104 14.3841 26.2482 14.3824 26.286 14.3824C26.3892 14.3824 26.4742 14.3984 26.5422 14.4109C26.5825 14.4183 26.6171 14.4251 26.6404 14.4251C26.6436 14.4251 26.6467 14.4251 26.6499 14.4251C27.0603 14.3858 27.4192 13.7436 27.4853 13.1914C27.5275 12.8392 27.4381 12.6546 27.3833 12.638C27.3096 12.6158 27.2605 12.6112 27.2328 12.6112C27.1699 12.6112 27.1352 12.6329 27.0358 12.7024C26.9281 12.7771 26.7808 12.8797 26.5636 12.9087C26.5032 12.9167 26.4434 12.9213 26.3867 12.9213C25.5085 12.9213 25.4134 12.063 25.3561 11.5501C25.3366 11.3735 25.3177 11.2065 25.2818 11.1011C25.1635 10.754 24.7971 10.5455 24.3727 10.3038C24.1096 10.154 23.8383 9.99895 23.6179 9.79779C23.5518 9.73738 23.4838 9.64734 23.3774 9.50545C23.3396 9.4553 23.283 9.3795 23.2282 9.31112C22.8939 9.52026 22.5281 9.68325 22.2064 9.81774C20.8346 10.3905 19.4477 10.6617 17.7101 10.697H17.6843C17.5332 10.697 17.4098 10.672 17.3192 10.6532C17.2675 10.6429 17.2203 10.6332 17.1939 10.6332C17.163 10.6332 17.1001 10.6839 17.0522 10.7312C16.8117 10.9666 16.7349 11.3786 16.6669 11.7422C16.5939 12.1303 16.5316 12.4659 16.2879 12.6825C16.0997 12.85 15.8964 12.9355 15.6829 12.9355C15.4148 12.9355 15.2152 12.8027 15.0698 12.7058C15.0313 12.6802 14.9665 12.6369 14.9426 12.6283C14.8733 12.6101 14.8097 12.6004 14.7562 12.6004L14.7575 12.5993ZM20.8321 5.09693C18.7886 5.09693 16.3018 6.17398 15.7182 8.17024C15.5772 8.65292 15.5079 9.18632 15.5086 9.78981C15.7302 9.51399 15.9946 9.28491 16.2294 9.08146L16.3326 8.99199H16.4756C18.3 8.98686 20.2246 8.90537 21.9395 7.99073C22.0472 7.93317 22.2115 7.81806 22.3846 7.69554C22.9141 7.32284 23.2855 7.07894 23.6198 7.07894C24.2487 7.0835 24.4974 7.65963 24.6793 8.0802C24.7536 8.2523 24.8304 8.42953 24.9047 8.5133C25.0439 8.66945 25.2957 8.81248 25.5626 8.96407C25.9504 9.18461 26.3515 9.41256 26.5976 9.76987C26.6014 9.37666 26.5699 9.00111 26.5019 8.63297C26.405 8.10698 26.06 6.84985 24.9438 6.53072C24.8707 6.50964 24.7769 6.49824 24.6781 6.4857C24.5188 6.46576 24.3387 6.44296 24.1738 6.37173C24.0082 6.29992 23.8571 6.16372 23.6821 6.00587C23.548 5.88506 23.4095 5.76083 23.2924 5.69358C22.6093 5.30265 21.7588 5.09636 20.8327 5.09636L20.8321 5.09693Z" fill="url(#paint0_linear_2003_2338)"/>
<path id="Vector_2" d="M15.2899 37.7118C14.8511 37.6657 14.6364 37.3602 14.6176 37.0776C14.5943 36.7237 14.848 36.4182 15.2345 36.335L15.2534 36.331L19.3821 36.2553L19.9801 32.9831L3.66638 33.0383C1.78337 33.0059 0.351125 31.7869 0.179885 30.0733V30.0659L0.182404 3.09504V3.08763C0.327832 1.70171 1.36786 0.593879 2.83285 0.265064L2.85299 0.260505H2.87377C8.08526 0.19269 13.6052 0.163057 20.7721 0.163057C24.1113 0.163057 27.5065 0.169326 30.7903 0.175595C34.0741 0.181863 37.4693 0.188132 40.8078 0.188132C43.5836 0.188132 46.0552 0.183573 48.3657 0.174455H48.3808L48.3959 0.176734C51.5223 0.652576 51.4959 2.95485 51.4726 4.98644C51.3932 11.9092 51.3995 18.9602 51.4065 25.7788C51.4077 27.1675 51.409 28.5563 51.4096 29.9445C51.4115 30.6785 51.0061 31.4854 50.3249 32.1037C49.7104 32.6617 48.9493 32.9814 48.2379 32.9814H31.5458L32.1772 36.3054L36.4148 36.3174L36.4393 36.3242C36.7724 36.4143 36.9826 36.6832 36.9757 37.0086C36.9688 37.3323 36.744 37.6019 36.416 37.6788L36.394 37.6839L15.2994 37.7124L15.2893 37.7113L15.2899 37.7118ZM30.6128 36.3054L29.8888 32.9899L21.5647 33.0355L20.9113 36.298L30.6128 36.306V36.3054ZM40.3898 31.5156C41.2114 31.5156 42.0588 31.5362 42.9565 31.5578C43.848 31.5795 44.7697 31.6017 45.6567 31.6017C46.6086 31.6017 47.4075 31.5755 48.0988 31.5213C48.7516 31.4706 49.7904 30.8574 49.7904 30.2272V29.2208L1.79722 29.2772V29.9992C1.79722 30.9315 2.8234 31.5812 3.74445 31.5812C3.77656 31.5812 3.80929 31.5806 3.8414 31.5789H3.85084H6.21295C8.67704 31.5795 11.143 31.5806 13.609 31.5806C21.9803 31.5806 30.9855 31.5726 40.1128 31.5162C40.2047 31.5162 40.2973 31.5156 40.3898 31.5156ZM8.28168 27.8719C8.32638 27.7625 8.31693 27.6052 8.30749 27.4519C8.3012 27.3476 8.2949 27.2393 8.30371 27.1373C8.66886 23.1471 11.0788 21.6825 14.8492 20.6134C15.0161 20.5661 15.244 20.5217 15.4851 20.4738C15.837 20.4049 16.2368 20.3262 16.4112 20.2425C16.651 20.1268 16.8556 19.2634 16.8903 18.6913C15.9629 17.8393 15.38 16.9383 15.1558 16.0123C15.0532 15.9764 14.9531 15.9519 14.8486 15.9263C14.661 15.8801 14.4665 15.8322 14.2505 15.7165C13.3547 15.2379 12.7402 14.0377 12.8208 12.9247C12.8793 12.1224 13.2772 11.5183 13.9471 11.2083C13.1985 8.01702 14.6944 5.28392 17.8749 4.0547C18.7393 3.72076 19.7919 3.53669 20.8395 3.53669C22.1748 3.53669 23.3955 3.83417 24.2769 4.37497C24.4003 4.4502 24.5344 4.56645 24.6647 4.67871C24.7774 4.77616 24.9058 4.88672 24.9719 4.91806C25.0399 4.95054 25.1306 4.9665 25.2269 4.98359C25.3257 5.00126 25.4378 5.02064 25.548 5.06281C26.797 5.53922 27.6343 6.44189 28.0353 7.74576C28.4194 8.99492 28.3098 10.3045 28.1373 11.2186C29.1956 11.842 29.3385 12.9812 29.1106 13.8588C28.8538 14.8492 28.0284 15.8824 26.7523 16.0231C26.5458 16.8523 26.1737 17.5618 25.616 18.1892C25.497 18.3231 25.3887 18.408 25.3018 18.4764C25.1217 18.6178 25.0607 18.6656 25.0978 19.0372C25.1375 19.4321 25.2898 19.8629 25.5089 20.2031C28.7461 20.8921 32.1747 22.0045 33.2198 24.9781C33.493 25.7548 33.6573 26.7088 33.7089 27.8155H49.791C49.7973 26.3857 49.8042 24.9559 49.8105 23.5261C49.842 16.8734 49.8747 9.99333 49.8552 3.22269C49.7828 2.59926 49.5405 2.15647 49.1338 1.90572C48.7629 1.6772 48.3896 1.63047 47.9433 1.63047C47.8312 1.63047 47.7191 1.63332 47.6008 1.63617C47.4818 1.63902 47.359 1.64244 47.235 1.64244C47.2123 1.64244 47.1903 1.64244 47.1676 1.64244C44.0085 1.6111 40.6026 1.59571 36.7547 1.59571C32.5921 1.59571 28.3589 1.61338 24.2656 1.63047C20.1722 1.64757 15.939 1.66524 11.7757 1.66524C8.72615 1.66524 5.99008 1.65612 3.41141 1.63674C2.65594 1.6584 1.79659 2.43798 1.79659 3.10188V27.8725H8.28105L8.28168 27.8719ZM16.3822 21.7275C14.3103 22.1225 11.6763 22.9454 10.6186 24.6356C10.2113 25.2864 9.95631 26.2888 9.86187 26.9498C9.78192 27.5072 9.78507 27.7477 9.7964 27.8468L32.2112 27.8149C32.1344 26.9544 32.0186 26.0529 31.6717 25.2106C30.9773 23.5238 29.0118 22.3829 25.6638 21.7241C24.6678 23.0456 22.9347 23.8315 21.0013 23.8315C19.0679 23.8315 17.3593 23.0474 16.381 21.7275H16.3822ZM17.7018 21.034C18.3792 21.9099 19.5961 22.4296 20.9811 22.4296C22.3662 22.4296 23.5907 21.9059 24.258 21.0237C24.2133 20.9337 24.1573 20.8454 24.0987 20.7531C24.0194 20.6283 23.9369 20.4989 23.8777 20.3542C23.8544 20.2972 23.8249 20.1866 23.7789 20.0111C23.7499 19.9017 23.7052 19.7296 23.6675 19.6076C22.856 20.0436 21.8839 20.2818 20.9075 20.2818C19.931 20.2818 19.0654 20.0629 18.315 19.6464C18.2105 20.149 17.9574 20.5986 17.7018 21.0334V21.034ZM14.7586 12.4369C14.5949 12.4369 14.486 12.4991 14.4148 12.6324C14.2021 13.0313 14.4174 13.9294 14.7277 14.2839C14.9663 14.5569 15.2081 14.5677 15.4882 14.5808C15.8137 14.5962 16.2185 14.615 16.4811 15.1455C16.6328 15.4527 16.7272 15.72 16.8185 15.9787C16.9904 16.4642 17.1383 16.8836 17.6231 17.4136C18.4837 18.3539 19.6458 18.8719 20.8962 18.8719C22.8094 18.8719 24.54 17.6957 25.2042 15.9445C25.242 15.8453 25.2697 15.7279 25.2993 15.6031C25.3975 15.19 25.5322 14.6241 26.1983 14.5477C26.2279 14.5443 26.2581 14.5426 26.2883 14.5426C26.3733 14.5426 26.4451 14.5557 26.5087 14.5677C26.5584 14.5768 26.6012 14.5848 26.6428 14.5848C26.6522 14.5848 26.6617 14.5848 26.6717 14.5836C27.1899 14.5341 27.5909 13.8303 27.6652 13.2068C27.7111 12.8216 27.6236 12.5372 27.4417 12.4825C27.3642 12.4592 27.295 12.4472 27.2352 12.4472C27.1086 12.4472 27.0337 12.4996 26.9298 12.5714C26.8272 12.6427 26.7114 12.723 26.5401 12.7458C26.4879 12.7526 26.4375 12.7566 26.3891 12.7566C25.6726 12.7566 25.5939 12.0483 25.536 11.5314C25.5152 11.3462 25.4957 11.1713 25.4548 11.051C25.3169 10.647 24.9058 10.4128 24.4702 10.1643C24.2158 10.0195 23.9527 9.86967 23.7474 9.68104C23.6927 9.63089 23.6284 9.54598 23.5277 9.41149C23.4585 9.31917 23.3426 9.16531 23.2652 9.08553C22.9114 9.32886 22.4984 9.51578 22.1339 9.66736C20.7853 10.2304 19.4205 10.4971 17.7081 10.5319H17.6848C17.5551 10.5319 17.4468 10.5102 17.3599 10.492C17.297 10.4789 17.2422 10.468 17.1956 10.468C17.1566 10.468 17.076 10.468 16.9224 10.6179C16.646 10.8886 16.5642 11.3257 16.4918 11.7115C16.4244 12.0722 16.3658 12.3839 16.1638 12.564C16.0101 12.7008 15.8483 12.7703 15.684 12.7703C15.4744 12.7703 15.3094 12.6603 15.1772 12.572C15.1118 12.5281 15.0431 12.4825 14.9966 12.4706C14.9084 12.4472 14.8285 12.4358 14.758 12.4358L14.7586 12.4369ZM20.8332 4.93459C18.7229 4.93459 16.1537 6.05381 15.5468 8.12814C15.3201 8.9026 15.3069 9.68617 15.351 10.3546C15.4284 10.2161 15.5084 10.0725 15.6116 9.93805C15.8314 9.65027 16.1096 9.40921 16.3545 9.19665L16.4061 9.1522H16.4773C18.3263 9.14707 20.2779 9.06387 22.0312 8.12871C22.149 8.06603 22.3177 7.94749 22.4959 7.82155C22.98 7.48077 23.3445 7.23971 23.6209 7.23971H23.624C24.127 7.24313 24.3417 7.73949 24.5136 8.1384C24.5967 8.32988 24.6748 8.51109 24.7661 8.61424C24.9234 8.79147 25.1879 8.94135 25.468 9.10091C25.8388 9.31176 26.2222 9.53002 26.447 9.85599L26.452 9.86397L26.7473 10.3518C26.8039 9.72606 26.7813 9.16189 26.6793 8.60683C26.5773 8.05178 26.209 6.72341 24.999 6.37693C24.9115 6.35186 24.8107 6.33932 24.7037 6.32564C24.5501 6.30626 24.3921 6.28632 24.2517 6.22591C24.1138 6.16608 23.9722 6.039 23.8085 5.8914C23.6681 5.76489 23.5227 5.63382 23.3886 5.55688C22.6772 5.14943 21.7933 4.93459 20.8332 4.93459Z" fill="url(#paint1_linear_2003_2338)"/>
<path id="Vector_3" d="M38.8989 21.6141C34.7658 21.6141 31.4033 18.5704 31.4033 14.8292C31.4033 11.088 34.7658 8.04436 38.8989 8.04436C43.0319 8.04436 46.3944 11.088 46.3944 14.8292C46.3944 18.5704 43.0319 21.6141 38.8989 21.6141ZM38.9247 9.78303C35.8537 9.78303 33.3556 12.0443 33.3556 14.8241C33.3556 17.6039 35.8537 19.8652 38.9247 19.8652C41.9957 19.8652 44.4938 17.6039 44.4938 14.8241C44.4938 12.0443 41.9957 9.78303 38.9247 9.78303Z" fill="url(#paint2_linear_2003_2338)"/>
<path id="Vector_4" d="M38.8971 21.4517C34.8623 21.4517 31.5797 18.4804 31.5797 14.8281C31.5797 11.1758 34.8623 8.20451 38.8971 8.20451C42.9319 8.20451 46.2145 11.1758 46.2145 14.8281C46.2145 18.4804 42.9319 21.4517 38.8971 21.4517ZM38.9229 9.62064C35.7537 9.62064 33.175 11.9548 33.175 14.8236C33.175 17.6923 35.7537 20.0265 38.9229 20.0265C42.0921 20.0265 44.6708 17.6923 44.6708 14.8236C44.6708 11.9548 42.0921 9.62064 38.9229 9.62064Z" fill="url(#paint3_linear_2003_2338)"/>
<path id="Vector_5" d="M37.4572 18.3957C36.8221 18.3957 36.3884 18.0288 36.3254 17.4384C36.236 16.6037 36.277 15.7005 36.316 14.827C36.3512 14.0356 36.3877 13.2168 36.3261 12.4697L36.3242 12.4487L36.3254 12.427C36.3626 11.8361 36.8353 11.4071 37.4509 11.4071C37.7059 11.4071 37.9602 11.484 38.1862 11.6293L42.5542 14.1797L42.5813 14.2042C42.8173 14.4179 42.9325 14.6732 42.9136 14.9427C42.8935 15.239 42.7109 15.5228 42.4006 15.741C41.7264 16.2156 40.9307 16.6447 40.1609 17.0595C39.4445 17.4458 38.7043 17.8453 38.0779 18.2732L38.0263 18.3085L37.9646 18.3251C37.7896 18.3718 37.619 18.3957 37.4585 18.3957H37.4572ZM38.2365 16.1934L40.3126 14.9079L40.2049 14.8464C39.5559 14.4772 38.8881 14.0971 38.2365 13.6988V16.1934Z" fill="url(#paint4_linear_2003_2338)"/>
<path id="Vector_6" d="M37.4588 18.2345C36.9156 18.2345 36.5587 17.9314 36.5045 17.4231C36.4164 16.5997 36.4567 15.7017 36.4957 14.8334C36.5316 14.0368 36.5681 13.2134 36.5052 12.4573V12.4464V12.4356C36.5366 11.933 36.9351 11.5684 37.4525 11.5684C37.6716 11.5684 37.8913 11.6356 38.0877 11.7627L42.4431 14.3057L42.4563 14.3177C42.6552 14.4977 42.7522 14.7103 42.7371 14.9319C42.7201 15.1815 42.5621 15.4231 42.2927 15.6128C41.6273 16.0812 40.836 16.508 40.0712 16.9205C39.3511 17.3086 38.6064 17.7103 37.9719 18.1439L37.9461 18.1616L37.9152 18.1701C37.7566 18.2129 37.603 18.2345 37.4595 18.2345H37.4588ZM38.0594 16.5006L40.6396 14.9034C40.5269 14.839 40.4143 14.7752 40.3016 14.7108C39.5601 14.2892 38.7959 13.8539 38.0594 13.394V16.5006Z" fill="url(#paint5_linear_2003_2338)"/>
<g id="Group 61">
<path id="Vector_7" d="M31.3359 32.8212L32.029 36.4678L36.3906 36.4803C36.9572 36.6342 36.9207 37.3956 36.3743 37.5243L15.3124 37.5528C14.64 37.4822 14.6217 36.6348 15.2777 36.4934L19.5354 36.4154L20.1927 32.8223L3.66741 32.8782C1.85554 32.8468 0.521508 31.6809 0.359082 30.0602L0.36223 3.10415C0.497585 1.8037 1.47214 0.738615 2.87732 0.422907C18.0239 0.226871 33.2069 0.397263 48.3674 0.337426C51.2728 0.779646 51.3206 2.79414 51.2954 4.98643C51.1997 13.2974 51.2287 21.6272 51.2325 29.9468C51.2363 31.2974 49.7581 32.8223 48.2396 32.8223H31.3359V32.8212ZM49.9708 27.9773C50.0067 19.725 50.0596 11.4727 50.0363 3.21413C49.9734 2.6568 49.7662 2.09833 49.2368 1.77236C48.5776 1.36604 47.8983 1.48857 47.1725 1.48116C32.5887 1.33698 17.9968 1.58487 3.41244 1.47546C2.56695 1.49768 1.62072 2.34052 1.62072 3.10187V27.9482L1.71515 28.0337H8.38848C8.57294 27.8109 8.45773 27.4359 8.48354 27.151C8.83609 23.3009 11.0962 21.8478 14.9044 20.7679C15.3168 20.651 16.1768 20.5393 16.4966 20.3855C16.8944 20.194 17.0594 19.0144 17.0732 18.628C16.241 17.8758 15.544 16.9594 15.313 15.896C14.9711 15.7576 14.6834 15.7593 14.3428 15.5775C12.8653 14.7882 12.3264 12.0027 14.154 11.3C13.3777 8.22558 14.7174 5.45145 17.9464 4.20343C19.7753 3.49679 22.4887 3.47286 24.1784 4.50888C24.4082 4.64964 24.7199 4.98016 24.8905 5.06109C25.0611 5.14201 25.2821 5.13574 25.4797 5.21153C28.1069 6.21279 28.3915 9.05474 27.9419 11.2983C29.9924 12.3777 28.9052 15.7376 26.6073 15.8732C26.419 16.7013 26.0633 17.4301 25.4791 18.0878C25.1121 18.5003 24.8577 18.4052 24.9226 19.0514C24.9667 19.4885 25.1423 19.9735 25.3973 20.3445C28.4582 20.9907 31.9988 22.0296 33.0521 25.0265C33.3782 25.9543 33.5035 27.0079 33.5394 27.9762H49.9708V27.9773ZM26.8654 10.8812C26.9806 10.101 27.0008 9.36133 26.8572 8.58118C26.6803 7.6181 26.1584 6.5399 25.0542 6.22419C24.8206 6.15752 24.5341 6.17005 24.3302 6.08172C24.1105 5.98656 23.7887 5.59562 23.4853 5.42181C20.792 3.88031 16.2152 5.21837 15.376 8.08824C15.1065 9.00972 15.1197 9.93861 15.2198 10.8812C15.437 10.6253 15.5529 10.3028 15.76 10.0315C15.9671 9.76024 16.2214 9.53856 16.4796 9.31517C18.4545 9.31004 20.3879 9.19493 22.1236 8.26946C22.5038 8.06659 23.2687 7.4004 23.6251 7.40268C24.2087 7.40667 24.3151 8.36235 24.6298 8.71681C25.0221 9.15732 25.9292 9.40692 26.2982 9.94203L26.8654 10.8812ZM23.2549 8.89062C22.9036 9.15333 22.4736 9.35107 22.0612 9.52318C20.6315 10.1198 19.2748 10.3409 17.7066 10.3729C17.3238 10.3808 17.1582 10.154 16.7943 10.5108C16.2303 11.0635 16.4021 12.1298 16.042 12.4512C15.5957 12.8484 15.3218 12.3891 15.0492 12.3178C13.7586 11.9787 14.1017 13.828 14.5903 14.3859C15.199 15.0811 15.9067 14.3756 16.3203 15.2133C16.7559 16.0955 16.7213 16.6808 17.4881 17.5185C19.9346 20.1923 24.1954 19.1095 25.3752 15.9992C25.5496 15.5393 25.5163 14.7911 26.2233 14.7101C26.4077 14.6891 26.528 14.762 26.6929 14.7466C27.7329 14.6475 28.2561 12.5583 27.5006 12.3315C26.9353 12.1617 26.8578 12.5429 26.516 12.5891C25.605 12.7116 25.804 11.5206 25.6277 11.006C25.3815 10.2857 24.4076 10.0566 23.8769 9.57047C23.744 9.44909 23.3877 8.86896 23.2555 8.89119L23.2549 8.89062ZM18.1787 19.3723C18.1208 19.9843 17.8073 20.5154 17.4957 21.0448C18.9827 23.1117 22.9974 23.1055 24.4611 21.0431C24.3541 20.7827 24.1545 20.5627 24.0475 20.2994C23.9883 20.1547 23.8246 19.3774 23.7503 19.3734C22.1185 20.337 19.7955 20.4049 18.1787 19.3723ZM16.4663 21.548C14.3857 21.9327 11.5778 22.7772 10.4648 24.5569C10.0618 25.2009 9.79176 26.1953 9.68663 26.9299C9.66144 27.1077 9.54372 27.9266 9.6753 28.0092L32.4068 27.9767C32.3256 27.0233 32.2129 26.0568 31.8414 25.1547C30.9135 22.8998 27.9759 22.0016 25.5855 21.544C23.5709 24.3655 18.4627 24.3922 16.467 21.548H16.4663ZM49.9708 29.0601L1.62072 29.117V30.0003C1.62072 31.0421 2.76777 31.7932 3.8525 31.7413C15.935 31.7447 28.0641 31.7538 40.1157 31.6792C42.6428 31.6638 45.6603 31.8752 48.1162 31.6837C48.8609 31.6256 49.9708 30.9583 49.9708 30.2283V29.0601ZM30.8316 36.4684L30.0371 32.8286L21.4178 32.8759L20.7215 36.351L20.7996 36.4598L30.8316 36.4678V36.4684Z" fill="url(#paint6_linear_2003_2338)"/>
<path id="Vector_8" d="M46.0361 14.8274C46.0361 18.396 42.8398 21.2892 38.8975 21.2892C34.9552 21.2892 31.7589 18.396 31.7589 14.8274C31.7589 11.2589 34.9552 8.36568 38.8975 8.36568C42.8398 8.36568 46.0361 11.2589 46.0361 14.8274ZM44.8487 14.8229C44.8487 11.8601 42.1957 9.45869 38.9227 9.45869C35.6496 9.45869 32.9966 11.8601 32.9966 14.8229C32.9966 17.7856 35.6496 20.1871 38.9227 20.1871C42.1957 20.1871 44.8487 17.7856 44.8487 14.8229Z" fill="url(#paint7_linear_2003_2338)"/>
<path id="Vector_9" d="M42.3297 14.4322C42.7174 14.7832 42.579 15.2066 42.1824 15.4858C40.902 16.3867 39.1829 17.1143 37.8635 18.0152C37.2604 18.177 36.7455 18.0038 36.6819 17.4072C36.5145 15.8419 36.8154 14.0362 36.6826 12.4448C36.7222 11.8117 37.4115 11.5211 37.9862 11.896L42.3297 14.4317V14.4322ZM37.8817 16.806L40.965 14.8972C39.9395 14.3103 38.904 13.7365 37.9119 13.1029C37.72 13.0875 37.8817 13.1644 37.8817 13.1878V16.806Z" fill="url(#paint8_linear_2003_2338)"/>
</g>
</g>
<defs>
<linearGradient id="paint0_linear_2003_2338" x1="0" y1="18.9371" x2="51.654" y2="18.9371" gradientUnits="userSpaceOnUse">
<stop stop-color="#BF5331"/>
<stop offset="1" stop-color="#EF6A5A"/>
</linearGradient>
<linearGradient id="paint1_linear_2003_2338" x1="0.179885" y1="18.9377" x2="51.4766" y2="18.9377" gradientUnits="userSpaceOnUse">
<stop stop-color="#BF5331"/>
<stop offset="1" stop-color="#EF6A5A"/>
</linearGradient>
<linearGradient id="paint2_linear_2003_2338" x1="31.4033" y1="14.8292" x2="46.3944" y2="14.8292" gradientUnits="userSpaceOnUse">
<stop stop-color="#BF5331"/>
<stop offset="1" stop-color="#EF6A5A"/>
</linearGradient>
<linearGradient id="paint3_linear_2003_2338" x1="31.5797" y1="14.8281" x2="46.2145" y2="14.8281" gradientUnits="userSpaceOnUse">
<stop stop-color="#BF5331"/>
<stop offset="1" stop-color="#EF6A5A"/>
</linearGradient>
<linearGradient id="paint4_linear_2003_2338" x1="36.2719" y1="14.9014" x2="42.9156" y2="14.9014" gradientUnits="userSpaceOnUse">
<stop stop-color="#BF5331"/>
<stop offset="1" stop-color="#EF6A5A"/>
</linearGradient>
<linearGradient id="paint5_linear_2003_2338" x1="36.4517" y1="14.9014" x2="42.7386" y2="14.9014" gradientUnits="userSpaceOnUse">
<stop stop-color="#BF5331"/>
<stop offset="1" stop-color="#EF6A5A"/>
</linearGradient>
<linearGradient id="paint6_linear_2003_2338" x1="0.359082" y1="18.9391" x2="51.2987" y2="18.9391" gradientUnits="userSpaceOnUse">
<stop stop-color="#BF5331"/>
<stop offset="1" stop-color="#EF6A5A"/>
</linearGradient>
<linearGradient id="paint7_linear_2003_2338" x1="31.7589" y1="14.8274" x2="46.0361" y2="14.8274" gradientUnits="userSpaceOnUse">
<stop stop-color="#BF5331"/>
<stop offset="1" stop-color="#EF6A5A"/>
</linearGradient>
<linearGradient id="paint8_linear_2003_2338" x1="36.6297" y1="14.9011" x2="42.5597" y2="14.9011" gradientUnits="userSpaceOnUse">
<stop stop-color="#BF5331"/>
<stop offset="1" stop-color="#EF6A5A"/>
</linearGradient>
</defs>
</svg>
