<svg preserveAspectRatio="none" width="100%" height="100%" overflow="visible" style="display: block;" viewBox="0 0 53 53" fill="none" xmlns="http://www.w3.org/2000/svg">
<g id="Group">
<path id="Vector" d="M10.4391 10.4391C1.58054 19.2977 1.58054 33.7023 10.4391 42.5609C14.8684 46.9902 20.6795 49.2048 26.5 49.2048C32.3205 49.2048 38.1316 46.9902 42.5609 42.5609C51.4195 33.7023 51.4195 19.2977 42.5609 10.4391C33.7023 1.58054 19.2977 1.58054 10.4391 10.4391ZM41.2264 41.2264C33.1061 49.3468 19.8939 49.3468 11.783 41.2264C3.66268 33.1061 3.66268 19.8939 11.783 11.783C15.8432 7.72286 21.1716 5.6975 26.5095 5.6975C31.8473 5.6975 37.1757 7.73232 41.2359 11.783C49.3563 19.9034 49.3563 33.1155 41.2359 41.2264H41.2264Z" fill="url(#paint0_linear_2003_2350)"/>
<path id="Vector_2" d="M26.5 0C19.4207 0 12.7673 2.75411 7.76071 7.76071C2.75411 12.7673 0 19.4207 0 26.5C0 33.5793 2.75411 40.2327 7.76071 45.2393C12.7673 50.2459 19.4207 53 26.5 53C33.5793 53 40.2327 50.2459 45.2393 45.2393C50.2459 40.2327 53 33.5793 53 26.5C53 19.4207 50.2459 12.7673 45.2393 7.76071C40.2327 2.75411 33.5793 0 26.5 0ZM43.8954 43.8954C39.2484 48.5423 33.0682 51.1071 26.5 51.1071C19.9318 51.1071 13.7516 48.5518 9.10464 43.8954C4.45768 39.2484 1.89286 33.0682 1.89286 26.5C1.89286 19.9318 4.44821 13.7516 9.10464 9.10464C13.7611 4.45768 19.9318 1.89286 26.5 1.89286C33.0682 1.89286 39.2484 4.44821 43.8954 9.10464C48.5423 13.7516 51.1071 19.9318 51.1071 26.5C51.1071 33.0682 48.5518 39.2484 43.8954 43.8954Z" fill="url(#paint1_linear_2003_2350)"/>
<path id="Vector_3" d="M38.6995 12.9945L23.3105 23.0361C23.3105 23.0361 23.2916 23.055 23.2821 23.0645C23.2348 23.0929 23.197 23.1212 23.1591 23.1496C23.1307 23.178 23.1212 23.2159 23.0929 23.2537C23.0739 23.2727 23.055 23.2821 23.0361 23.3105L12.9945 38.6995C12.7484 39.078 12.8052 39.5702 13.1175 39.8825C13.2973 40.0623 13.5434 40.157 13.7895 40.157C13.9693 40.157 14.1491 40.1096 14.31 40.0055L29.6989 29.9639C29.6989 29.9639 29.7368 29.9166 29.7652 29.8977C29.7936 29.8787 29.822 29.8693 29.8504 29.8409C29.8788 29.8125 29.8882 29.7841 29.9071 29.7557C29.9261 29.7273 29.9545 29.7179 29.9734 29.6895L40.015 14.3005C40.2611 13.922 40.2043 13.4298 39.892 13.1175C39.5796 12.7957 39.078 12.7484 38.7089 12.9945H38.6995ZM23.9825 25.317L27.683 29.0175L26.0173 30.1059C26.0173 30.1059 25.9889 30.1248 25.97 30.1343C25.9605 30.1343 25.9511 30.1532 25.9416 30.1627L17.0357 35.9737L23.9825 25.3264V25.317ZM30.1627 25.9416C30.1627 25.9416 30.1437 25.9605 30.1343 25.97C30.1248 25.9889 30.1154 25.9984 30.1059 26.0173L29.0175 27.683L25.317 23.9825L35.9643 17.0357L30.1532 25.9416H30.1627Z" fill="url(#paint2_linear_2003_2350)"/>
<path id="Vector_4" d="M27.3707 37.9707C27.3518 37.9139 27.3234 37.8571 27.2855 37.8098C27.2571 37.753 27.2098 37.7057 27.172 37.6584C26.8218 37.3082 26.1782 37.3082 25.828 37.6584C25.7902 37.7057 25.7523 37.753 25.7145 37.8098C25.6766 37.8571 25.6482 37.9139 25.6293 37.9707C25.6009 38.0275 25.582 38.0843 25.5725 38.1505C25.563 38.2073 25.5536 38.2736 25.5536 38.3304C25.5536 38.5764 25.6577 38.8225 25.828 39.0023C26.0079 39.1727 26.2539 39.2768 26.5 39.2768C26.7461 39.2768 26.9921 39.1727 27.172 39.0023C27.3423 38.8225 27.4464 38.5764 27.4464 38.3304C27.4464 38.2736 27.437 38.2073 27.4275 38.1505C27.418 38.0843 27.3991 38.0275 27.3707 37.9707Z" fill="url(#paint3_linear_2003_2350)"/>
<path id="Vector_5" d="M26.5 35.5668C27.0227 35.5668 27.4464 35.1431 27.4464 34.6204C27.4464 34.0977 27.0227 33.6739 26.5 33.6739C25.9773 33.6739 25.5536 34.0977 25.5536 34.6204C25.5536 35.1431 25.9773 35.5668 26.5 35.5668Z" fill="url(#paint4_linear_2003_2350)"/>
<path id="Vector_6" d="M26.5 19.3261C27.0205 19.3261 27.4464 18.9002 27.4464 18.3796C27.4464 17.8591 27.0205 17.4332 26.5 17.4332C25.9795 17.4332 25.5536 17.8496 25.5536 18.3796C25.5536 18.9096 25.9795 19.3261 26.5 19.3261Z" fill="url(#paint5_linear_2003_2350)"/>
<path id="Vector_7" d="M25.9795 15.4552C26.0268 15.493 26.0836 15.5214 26.1404 15.5404C26.1971 15.5687 26.2539 15.5877 26.3107 15.5971C26.377 15.5971 26.4338 15.6161 26.5 15.6161C26.7461 15.6161 26.9921 15.512 27.172 15.3416C27.3423 15.1618 27.4464 14.9157 27.4464 14.6696C27.4464 14.4236 27.3423 14.1775 27.172 13.9977C26.8218 13.6475 26.1877 13.6475 25.828 13.9977C25.6577 14.1775 25.5536 14.4141 25.5536 14.6696C25.5536 14.9252 25.6577 15.1618 25.828 15.3416C25.8754 15.3795 25.9227 15.4173 25.9795 15.4552Z" fill="url(#paint6_linear_2003_2350)"/>
<path id="Vector_8" d="M35.387 34.0809C35.387 34.0809 35.2829 34.0146 35.2261 33.9957C35.1693 33.9673 35.1125 33.9484 35.0462 33.9389C34.9327 33.9105 34.8002 33.9105 34.6771 33.9389C34.6204 33.9389 34.5636 33.9673 34.5068 33.9957C34.45 34.0146 34.3932 34.043 34.3364 34.0809C34.2891 34.1093 34.2418 34.1566 34.1945 34.1945C34.0241 34.3743 33.92 34.6204 33.92 34.8664C33.92 34.9232 33.92 34.9895 33.9389 35.0462C33.9389 35.1125 33.9673 35.1693 33.9957 35.2261C34.0146 35.2829 34.043 35.3396 34.0809 35.387C34.1093 35.4437 34.1566 35.4911 34.1945 35.5384C34.2418 35.5762 34.2891 35.6141 34.3364 35.652C34.3932 35.6898 34.45 35.7182 34.5068 35.7371C34.5636 35.7655 34.6204 35.7845 34.6771 35.7939C34.7434 35.7939 34.8002 35.8129 34.8664 35.8129C34.9232 35.8129 34.9895 35.8034 35.0462 35.7939C35.1125 35.7939 35.1693 35.7655 35.2261 35.7371C35.2829 35.7182 35.3396 35.6898 35.387 35.652C35.4437 35.6141 35.4911 35.5762 35.5384 35.5384C35.5762 35.4911 35.6141 35.4437 35.652 35.387C35.6898 35.3396 35.7182 35.2829 35.7371 35.2261C35.7655 35.1693 35.7845 35.1125 35.7939 35.0462C35.7939 34.9895 35.8129 34.9232 35.8129 34.8664C35.8129 34.6204 35.7087 34.3743 35.5384 34.1945C35.4911 34.1566 35.4437 34.1093 35.387 34.0809Z" fill="url(#paint7_linear_2003_2350)"/>
<path id="Vector_9" d="M31.3552 31.3552C30.9861 31.7243 30.9861 32.3205 31.3552 32.6896C31.535 32.8695 31.7811 32.9641 32.0177 32.9641C32.2543 32.9641 32.5098 32.8695 32.6896 32.6896C33.0588 32.3205 33.0588 31.7243 32.6896 31.3552C32.3205 30.9861 31.7243 30.9861 31.3552 31.3552Z" fill="url(#paint8_linear_2003_2350)"/>
<path id="Vector_10" d="M20.9823 21.9288C21.2189 21.9288 21.465 21.8341 21.6448 21.6448C22.0139 21.2757 22.0139 20.6795 21.6448 20.3104C21.2757 19.9413 20.6795 19.9413 20.3104 20.3104C19.9413 20.6795 19.9413 21.2757 20.3104 21.6448C20.4902 21.8341 20.7363 21.9288 20.9823 21.9288Z" fill="url(#paint9_linear_2003_2350)"/>
<path id="Vector_11" d="M17.7739 19.0043C17.8875 19.0611 18.0105 19.08 18.1336 19.08C18.2566 19.08 18.3796 19.0611 18.4932 19.0043C18.6163 18.957 18.7204 18.8907 18.8055 18.8055C18.9854 18.6257 19.08 18.3796 19.08 18.1336C19.08 18.0105 19.0611 17.8875 19.0043 17.7739C18.957 17.6604 18.8907 17.5562 18.8055 17.4616C18.7204 17.3764 18.6163 17.3102 18.4932 17.2629C18.2661 17.1682 18.0011 17.1682 17.7739 17.2629C17.6604 17.3102 17.5563 17.3764 17.4616 17.4616C17.3764 17.5562 17.3102 17.6604 17.2629 17.7739C17.2155 17.8875 17.1871 18.0105 17.1871 18.1336C17.1871 18.3796 17.2913 18.6257 17.4616 18.8055C17.5563 18.8907 17.6604 18.957 17.7739 19.0043Z" fill="url(#paint10_linear_2003_2350)"/>
<path id="Vector_12" d="M39.2105 26.1404C39.1821 26.0836 39.1538 26.0268 39.1159 25.97C39.0875 25.9227 39.0496 25.8754 39.0023 25.828C38.955 25.7902 38.9077 25.7523 38.8604 25.7145C38.8036 25.6766 38.7468 25.6482 38.69 25.6293C38.6332 25.6009 38.5764 25.582 38.5196 25.5725C38.3304 25.5346 38.1411 25.5536 37.9707 25.6293C37.8571 25.6766 37.753 25.7429 37.6584 25.828C37.488 26.0079 37.3839 26.2539 37.3839 26.5C37.3839 26.623 37.4123 26.7461 37.4596 26.8596C37.507 26.9827 37.5732 27.0773 37.6584 27.172C37.753 27.2571 37.8571 27.3234 37.9707 27.3707C38.0843 27.418 38.2073 27.4464 38.3304 27.4464C38.3966 27.4464 38.4534 27.437 38.5196 27.4275C38.5764 27.418 38.6332 27.3991 38.69 27.3707C38.7468 27.3518 38.8036 27.3234 38.8604 27.2855C38.9077 27.2477 38.955 27.2098 39.0023 27.172C39.0875 27.0773 39.1538 26.9732 39.2105 26.8596C39.2579 26.7461 39.2768 26.623 39.2768 26.5C39.2768 26.4337 39.2768 26.377 39.2579 26.3107C39.2484 26.2539 39.2295 26.1971 39.2105 26.1404Z" fill="url(#paint11_linear_2003_2350)"/>
<path id="Vector_13" d="M34.6204 27.4464C35.1504 27.4464 35.5668 27.0205 35.5668 26.5C35.5668 25.9795 35.1504 25.5536 34.6204 25.5536C34.0904 25.5536 33.6739 25.9795 33.6739 26.5C33.6739 27.0205 34.0998 27.4464 34.6204 27.4464Z" fill="url(#paint12_linear_2003_2350)"/>
<path id="Vector_14" d="M18.3796 27.4464C18.9023 27.4464 19.3261 27.0227 19.3261 26.5C19.3261 25.9773 18.9023 25.5536 18.3796 25.5536C17.8569 25.5536 17.4332 25.9773 17.4332 26.5C17.4332 27.0227 17.8569 27.4464 18.3796 27.4464Z" fill="url(#paint13_linear_2003_2350)"/>
<path id="Vector_15" d="M13.9977 27.172C14.1775 27.3423 14.4236 27.4464 14.6696 27.4464C14.7927 27.4464 14.9157 27.418 15.0293 27.3707C15.1429 27.3234 15.247 27.2571 15.3416 27.172C15.4268 27.0773 15.493 26.9732 15.5404 26.8596C15.5877 26.7461 15.6161 26.623 15.6161 26.5C15.6161 26.4338 15.6066 26.377 15.5971 26.3107C15.5877 26.2539 15.5687 26.1971 15.5404 26.1404C15.5214 26.0836 15.493 26.0268 15.4552 25.97C15.4173 25.9227 15.3795 25.8754 15.3416 25.828C15.247 25.7429 15.1429 25.6766 15.0293 25.6293C14.6791 25.4779 14.2627 25.563 13.9977 25.828C13.9504 25.8754 13.9125 25.9227 13.8841 25.97C13.8462 26.0268 13.8179 26.0836 13.7895 26.1404C13.7705 26.1971 13.7516 26.2539 13.7421 26.3107C13.7232 26.377 13.7232 26.4338 13.7232 26.5C13.7232 26.623 13.7421 26.7461 13.7895 26.8596C13.8462 26.9732 13.9125 27.0773 13.9977 27.172Z" fill="url(#paint14_linear_2003_2350)"/>
</g>
<defs>
<linearGradient id="paint0_linear_2003_2350" x1="3.79518" y1="26.5" x2="49.2048" y2="26.5" gradientUnits="userSpaceOnUse">
<stop stop-color="#BF5331"/>
<stop offset="1" stop-color="#EF6A5A"/>
</linearGradient>
<linearGradient id="paint1_linear_2003_2350" x1="0" y1="26.5" x2="53" y2="26.5" gradientUnits="userSpaceOnUse">
<stop stop-color="#BF5331"/>
<stop offset="1" stop-color="#EF6A5A"/>
</linearGradient>
<linearGradient id="paint2_linear_2003_2350" x1="12.8412" y1="26.4976" x2="40.1683" y2="26.4976" gradientUnits="userSpaceOnUse">
<stop stop-color="#BF5331"/>
<stop offset="1" stop-color="#EF6A5A"/>
</linearGradient>
<linearGradient id="paint3_linear_2003_2350" x1="25.5536" y1="38.3363" x2="27.4464" y2="38.3363" gradientUnits="userSpaceOnUse">
<stop stop-color="#BF5331"/>
<stop offset="1" stop-color="#EF6A5A"/>
</linearGradient>
<linearGradient id="paint4_linear_2003_2350" x1="25.5536" y1="34.6204" x2="27.4464" y2="34.6204" gradientUnits="userSpaceOnUse">
<stop stop-color="#BF5331"/>
<stop offset="1" stop-color="#EF6A5A"/>
</linearGradient>
<linearGradient id="paint5_linear_2003_2350" x1="25.5536" y1="18.3796" x2="27.4464" y2="18.3796" gradientUnits="userSpaceOnUse">
<stop stop-color="#BF5331"/>
<stop offset="1" stop-color="#EF6A5A"/>
</linearGradient>
<linearGradient id="paint6_linear_2003_2350" x1="25.5536" y1="14.6756" x2="27.4464" y2="14.6756" gradientUnits="userSpaceOnUse">
<stop stop-color="#BF5331"/>
<stop offset="1" stop-color="#EF6A5A"/>
</linearGradient>
<linearGradient id="paint7_linear_2003_2350" x1="33.92" y1="34.8652" x2="35.8129" y2="34.8652" gradientUnits="userSpaceOnUse">
<stop stop-color="#BF5331"/>
<stop offset="1" stop-color="#EF6A5A"/>
</linearGradient>
<linearGradient id="paint8_linear_2003_2350" x1="31.0784" y1="32.0212" x2="32.9665" y2="32.0212" gradientUnits="userSpaceOnUse">
<stop stop-color="#BF5331"/>
<stop offset="1" stop-color="#EF6A5A"/>
</linearGradient>
<linearGradient id="paint9_linear_2003_2350" x1="20.0335" y1="20.9811" x2="21.9217" y2="20.9811" gradientUnits="userSpaceOnUse">
<stop stop-color="#BF5331"/>
<stop offset="1" stop-color="#EF6A5A"/>
</linearGradient>
<linearGradient id="paint10_linear_2003_2350" x1="17.1871" y1="18.1359" x2="19.08" y2="18.1359" gradientUnits="userSpaceOnUse">
<stop stop-color="#BF5331"/>
<stop offset="1" stop-color="#EF6A5A"/>
</linearGradient>
<linearGradient id="paint11_linear_2003_2350" x1="37.3839" y1="26.5" x2="39.2768" y2="26.5" gradientUnits="userSpaceOnUse">
<stop stop-color="#BF5331"/>
<stop offset="1" stop-color="#EF6A5A"/>
</linearGradient>
<linearGradient id="paint12_linear_2003_2350" x1="33.6739" y1="26.5" x2="35.5668" y2="26.5" gradientUnits="userSpaceOnUse">
<stop stop-color="#BF5331"/>
<stop offset="1" stop-color="#EF6A5A"/>
</linearGradient>
<linearGradient id="paint13_linear_2003_2350" x1="17.4332" y1="26.5" x2="19.3261" y2="26.5" gradientUnits="userSpaceOnUse">
<stop stop-color="#BF5331"/>
<stop offset="1" stop-color="#EF6A5A"/>
</linearGradient>
<linearGradient id="paint14_linear_2003_2350" x1="13.7232" y1="26.5005" x2="15.6161" y2="26.5005" gradientUnits="userSpaceOnUse">
<stop stop-color="#BF5331"/>
<stop offset="1" stop-color="#EF6A5A"/>
</linearGradient>
</defs>
</svg>
