<svg viewBox="0 0 53 53" fill="none" xmlns="http://www.w3.org/2000/svg">
<g id="Group" transform="translate(1.5, 12)">
<path id="Vector" d="M26.7004 0.162096L49.0882 7.08339C49.3847 7.17459 49.6068 7.30871 49.7595 7.47412L49.8094 7.5376C49.9865 7.76024 50.0393 8.0088 49.9728 8.27524C49.9199 8.48268 49.7927 8.67848 49.5902 8.85284C49.3015 9.10587 48.8083 9.3598 48.142 9.56544L27.6496 15.902C26.9254 16.1246 26.0937 16.2722 25.3393 16.3276C24.5457 16.3884 23.803 16.3482 23.3029 16.1935L0.912179 9.27038C0.61862 9.17919 0.396494 9.04775 0.243843 8.88234C0.0246517 8.64183 -0.044824 8.37002 0.0275873 8.07854C0.080428 7.87289 0.207637 7.67798 0.407257 7.50094C0.69886 7.24791 1.19204 6.99667 1.85744 6.79102L22.3508 0.455364C23.0749 0.232731 23.9067 0.0825204 24.6611 0.0270856C25.4547 -0.0337138 26.2004 0.00652113 26.6994 0.161202L26.7004 0.162096ZM47.9864 8.17331L26.2258 1.44425C25.9234 1.35037 25.3911 1.33248 24.7834 1.37808C24.1347 1.42637 23.4301 1.55065 22.8283 1.73841L2.33594 8.07407C2.21656 8.10983 2.11088 8.1447 2.01401 8.18047L23.7746 14.9095C24.0799 15.0034 24.6093 15.0213 25.2169 14.9757C25.8657 14.9274 26.5702 14.8031 27.172 14.6181L47.6644 8.2815C47.7838 8.24395 47.8895 8.20818 47.9864 8.17242V8.17331Z" fill="url(#paint0_linear_2003_2439)"/>
<path id="Vector_2" d="M38.8694 11.4861C38.8694 11.1105 39.2021 10.8065 39.6131 10.8065C40.0241 10.8065 40.3568 11.1105 40.3568 11.4861V20.6453C40.3568 20.9136 40.1846 21.1442 39.938 21.256C34.7479 23.9955 29.639 25.3671 24.5379 25.3671C19.4368 25.3671 14.3191 23.9884 9.16319 21.2283C8.9303 21.1013 8.79722 20.876 8.79722 20.6453H8.79428V11.2223C8.79428 10.8468 9.12699 10.5455 9.53797 10.5455C9.94895 10.5455 10.2817 10.8468 10.2817 11.2223V20.2582C15.0745 22.7599 19.8037 24.0116 24.5388 24.0116C29.274 24.0116 34.0277 22.7572 38.8704 20.2528V11.4861H38.8694Z" fill="url(#paint1_linear_2003_2439)"/>
<path id="Vector_3" d="M11.5997 12.0914C11.5997 11.7159 11.9324 11.4119 12.3434 11.4119C12.7544 11.4119 13.0871 11.7159 13.0871 12.0914V24.3764C13.0871 24.752 12.7544 25.056 12.3434 25.056C11.9324 25.056 11.5997 24.752 11.5997 24.3764V12.0914Z" fill="url(#paint2_linear_2003_2439)"/>
<path id="Vector_4" d="M11.5948 23.6969H13.093C13.4257 23.6969 13.7055 23.8972 13.8034 24.1708L15.2624 27.572C15.4121 27.9189 15.2232 28.3123 14.8406 28.4491C14.8132 28.4589 14.7849 28.467 14.7575 28.475C13.9502 28.7003 13.1458 28.8148 12.3444 28.8148C11.543 28.8148 10.7161 28.6986 9.89807 28.4652C9.50666 28.3561 9.28747 27.9788 9.40978 27.6212L9.42642 27.5729L10.905 24.1315C11.0185 23.8623 11.2993 23.7005 11.5958 23.6978L11.5948 23.6969ZM12.5871 25.0551H12.0988L11.1114 27.3485C11.5224 27.4191 11.9324 27.4549 12.3434 27.4549C12.7544 27.4549 13.1644 27.4191 13.5754 27.3485L12.588 25.0551H12.5871Z" fill="url(#paint3_linear_2003_2439)"/>
<path id="Vector_5" d="M12.5822 12.7325C12.1937 12.8514 11.772 12.6618 11.6418 12.3069C11.5117 11.9546 11.7191 11.5692 12.1047 11.4503L24.761 7.53679C25.1495 7.41519 25.5712 7.60474 25.7013 7.9597C25.8315 8.31466 25.624 8.69734 25.2385 8.81894L12.5812 12.7325H12.5822Z" fill="url(#paint4_linear_2003_2439)"/>
</g>
<defs>
<linearGradient id="paint0_linear_2003_2439" x1="0" y1="8.17734" x2="50.0005" y2="8.17734" gradientUnits="userSpaceOnUse">
<stop stop-color="#BF5331"/>
<stop offset="1" stop-color="#EF6A5A"/>
</linearGradient>
<linearGradient id="paint1_linear_2003_2439" x1="8.79428" y1="17.9563" x2="40.3568" y2="17.9563" gradientUnits="userSpaceOnUse">
<stop stop-color="#BF5331"/>
<stop offset="1" stop-color="#EF6A5A"/>
</linearGradient>
<linearGradient id="paint2_linear_2003_2439" x1="11.5997" y1="18.2339" x2="13.0871" y2="18.2339" gradientUnits="userSpaceOnUse">
<stop stop-color="#BF5331"/>
<stop offset="1" stop-color="#EF6A5A"/>
</linearGradient>
<linearGradient id="paint3_linear_2003_2439" x1="9.37588" y1="26.2559" x2="15.3137" y2="26.2559" gradientUnits="userSpaceOnUse">
<stop stop-color="#BF5331"/>
<stop offset="1" stop-color="#EF6A5A"/>
</linearGradient>
<linearGradient id="paint4_linear_2003_2439" x1="11.603" y1="10.134" x2="25.7402" y2="10.134" gradientUnits="userSpaceOnUse">
<stop stop-color="#BF5331"/>
<stop offset="1" stop-color="#EF6A5A"/>
</linearGradient>
</defs>
</svg>
