<svg width="53" height="53" viewBox="0 0 53 53" fill="none" xmlns="http://www.w3.org/2000/svg">
<path d="M39.0952 24.5683C38.702 24.5683 38.3838 24.2282 38.3838 23.8086V13.3594C38.3838 12.9398 38.702 12.5996 39.0952 12.5996C39.4885 12.5996 39.8067 12.9398 39.8067 13.3594V23.8086C39.8067 24.2282 39.4885 24.5683 39.0952 24.5683Z" fill="url(#paint0_linear_2001_590)"/>
<path d="M37.8655 50.3127H9.94258C8.87124 50.3127 8 49.382 8 48.2382V6.06966C8 4.92855 8.86986 4 9.93842 4H31.0442C31.4375 4 31.7557 4.34018 31.7557 4.75975C31.7557 5.17933 31.4375 5.51951 31.0442 5.51951H9.93842C9.65425 5.51951 9.42289 5.76621 9.42289 6.06966V48.2382C9.42289 48.5443 9.65634 48.7932 9.94258 48.7932H37.8655C38.1517 48.7932 38.3852 48.5443 38.3852 48.2382V45.7383C38.3852 45.3187 38.7034 44.9785 39.0966 44.9785C39.4899 44.9785 39.8081 45.3187 39.8081 45.7383V48.2382C39.8081 49.382 38.9368 50.3127 37.8655 50.3127Z" fill="url(#paint1_linear_2001_590)"/>
<path d="M32.6533 14.5353C31.3547 14.5353 30.3334 13.4439 30.3334 12.1025V4.75943C30.3334 4.45226 30.5064 4.17514 30.7725 4.05754C31.0393 3.94069 31.3443 4.00487 31.5479 4.22226L39.6003 12.8214C39.7983 13.0329 39.8615 13.3486 39.7622 13.6279C39.6635 13.9076 39.4196 14.0991 39.1403 14.1169L32.656 14.5353H32.6533ZM31.7563 6.59352V12.1025C31.7563 12.607 32.1405 13.0173 32.613 13.0173L37.4764 12.7023L31.7563 6.59352Z" fill="url(#paint2_linear_2001_590)"/>
<path d="M42.7116 41.6959C42.0856 41.6959 41.4964 41.4358 41.0538 40.9632L36.196 35.7747C35.9181 35.478 35.9181 34.9972 36.196 34.7004C36.4739 34.4036 36.9241 34.4036 37.202 34.7004L42.0599 39.8885C42.4072 40.2594 43.0152 40.2602 43.3626 39.8885C43.5369 39.7026 43.6321 39.4555 43.6321 39.1929C43.6321 38.9302 43.5369 38.6832 43.3626 38.4977L38.5047 33.3096C38.2268 33.0128 38.2268 32.5321 38.5047 32.2353C38.7826 31.9385 39.2328 31.9385 39.5107 32.2353L44.3686 37.423C44.8112 37.8956 45.055 38.524 45.055 39.1929C45.055 39.8618 44.8112 40.4902 44.3686 40.9632C43.926 41.4354 43.3375 41.6959 42.7116 41.6959Z" fill="url(#paint3_linear_2001_590)"/>
<path d="M40.4046 44.1611C39.7786 44.1611 39.1894 43.9006 38.7475 43.4273L33.889 38.24C33.6111 37.9435 33.6111 37.4624 33.889 37.1656C34.1669 36.8688 34.6171 36.8688 34.895 37.1656L39.7536 42.3533C40.1023 42.725 40.7068 42.7247 41.0556 42.3537C41.2299 42.1675 41.3251 41.9204 41.3251 41.6577C41.3251 41.3955 41.2299 41.1484 41.0556 40.9629L36.1977 35.7745C35.9198 35.4777 35.9198 34.9969 36.1977 34.7001C36.4756 34.4033 36.9258 34.4033 37.2037 34.7001L42.0616 39.8882C42.5042 40.3608 42.748 40.9892 42.748 41.6577C42.748 42.3266 42.5042 42.955 42.0616 43.428C41.6197 43.9006 41.0305 44.1611 40.4046 44.1611Z" fill="url(#paint4_linear_2001_590)"/>
<path d="M45.0221 39.2291C44.4024 39.2291 43.7973 38.9623 43.3616 38.4968L38.5045 33.3098C38.2266 33.013 38.2266 32.5323 38.5045 32.2355C38.7824 31.9387 39.2326 31.9387 39.5105 32.2355L44.3677 37.4224C44.7658 37.8476 45.5043 37.763 45.8086 37.2392C46.0275 36.8645 45.9351 36.3091 45.5953 35.9467L39.1444 29.0662L37.3637 30.9593C36.5834 31.7933 35.542 32.2529 34.4338 32.2529C33.5577 32.2462 32.8317 31.7143 32.5051 30.8647C32.1675 29.9844 32.3509 28.9865 32.9727 28.3221L35.5329 25.5839C35.2328 25.4359 34.9202 25.3283 34.604 25.2656C33.5508 25.0568 32.6524 24.645 31.9278 24.0403L25.9659 30.4147C26.5238 31.0792 26.9275 31.8805 27.1401 32.7445L27.229 33.1073C27.2943 33.3714 27.3881 33.6363 27.509 33.8937C27.6848 34.2692 27.5424 34.7255 27.1908 34.9132C26.8393 35.1012 26.4127 34.9484 26.2362 34.5734C26.0722 34.2228 25.943 33.8596 25.8527 33.4938L25.763 33.1295C25.5963 32.448 25.2649 31.82 24.8057 31.3136L24.4597 30.933C24.1894 30.6351 24.1922 30.1606 24.4666 29.8672L31.3879 22.467C31.6554 22.1817 32.0827 22.1691 32.3648 22.4362L32.6288 22.687C33.195 23.2249 33.9475 23.5899 34.8639 23.7713C35.658 23.929 36.4334 24.2922 37.1059 24.8216C37.2852 24.9622 37.3922 25.184 37.3956 25.4211C37.3991 25.6581 37.2991 25.8833 37.1247 26.0298L33.9787 29.3964C33.7175 29.6754 33.7265 30.0401 33.8217 30.2886C33.8731 30.4214 34.0322 30.7304 34.4123 30.7334C35.1619 30.7334 35.8463 30.4318 36.359 29.8839L38.1411 27.9897C38.6949 27.4002 39.5967 27.4009 40.1504 27.9912L46.6014 34.8716C47.4101 35.7345 47.5852 37.0678 47.0168 38.0416C46.5847 38.7846 45.8385 39.2291 45.0221 39.2291Z" fill="url(#paint5_linear_2001_590)"/>
<path d="M38.093 46.6311C37.4684 46.6311 36.8793 46.3692 36.4346 45.8932L35.1653 44.5384C34.8874 44.242 34.8874 43.7609 35.1653 43.4641C35.4432 43.1673 35.8934 43.1673 36.1713 43.4641L37.4407 44.8193C37.8117 45.2158 38.4564 45.1891 38.8066 44.7499C39.1012 44.3745 39.047 43.7475 38.6822 43.3573L33.889 38.2393C33.6111 37.9429 33.6111 37.4617 33.889 37.165C34.1669 36.8682 34.6171 36.8682 34.895 37.165L39.6882 42.2829C40.5762 43.2319 40.6665 44.7466 39.8932 45.7311C39.4346 46.305 38.7802 46.6311 38.093 46.6311Z" fill="url(#paint6_linear_2001_590)"/>
<path d="M24.2603 31.4779C24.2596 31.4779 24.2582 31.4779 24.2575 31.4779C23.801 31.4772 23.3717 31.2865 23.05 30.9404L20.8698 28.5973C20.5933 28.3001 20.594 27.8205 20.8712 27.5244L29.2112 18.6181C29.3446 18.4756 29.5253 18.3955 29.7143 18.3955C29.9025 18.3955 30.0846 18.476 30.218 18.6188L32.4009 20.9556C33.0638 21.6656 33.0631 22.8201 32.4002 23.5294L25.4671 30.9437C25.1447 31.2883 24.7161 31.4779 24.2603 31.4779ZM22.3788 28.0635L24.0588 29.869C24.1311 29.9469 24.2158 29.9584 24.2596 29.9584C24.3034 29.9584 24.3881 29.9469 24.4604 29.8697L31.3928 22.4558C31.5033 22.3378 31.5033 22.1461 31.3935 22.0285L29.7136 20.2303L22.3788 28.0635Z" fill="url(#paint7_linear_2001_590)"/>
<path d="M49.4004 31.1517C48.9439 31.1517 48.5152 30.9618 48.1929 30.6172L41.2597 23.2029C40.5962 22.4925 40.5969 21.338 41.2604 20.6287L43.442 18.2927C43.5754 18.1498 43.7561 18.0693 43.945 18.0693C44.134 18.0693 44.3153 18.1495 44.4487 18.2919L52.7888 27.1983C53.066 27.4943 53.0667 27.974 52.7902 28.2707L50.6107 30.6138C50.2883 30.9607 49.8367 31.1688 49.4004 31.1517ZM43.9464 19.9042L42.2672 21.7023C42.1567 21.8203 42.1574 22.0117 42.2672 22.1296L49.2003 29.5436C49.2719 29.6207 49.3566 29.6322 49.4004 29.6322C49.4094 29.6341 49.5289 29.6218 49.6019 29.5428L51.2811 27.7373L43.9464 19.9042Z" fill="url(#paint8_linear_2001_590)"/>
<path d="M45.9526 36.0134C45.7706 36.0134 45.5886 35.9392 45.4496 35.7912L39.1432 29.0655L37.3632 30.9597C36.5829 31.7932 35.5415 32.2529 34.4333 32.2529C33.5572 32.2462 32.8312 31.7142 32.5046 30.8647C32.167 29.9844 32.3504 28.9865 32.9722 28.322L36.073 25.0018C36.9025 24.1171 37.9475 23.5558 39.098 23.3762C39.9297 23.2364 40.7147 22.8097 41.3018 22.1757C41.4352 22.0318 41.6166 21.9506 41.8062 21.9502H41.8076C41.9966 21.9502 42.1779 22.0303 42.3113 22.1735L49.241 29.5908C49.3758 29.7351 49.4508 29.9313 49.4487 30.1357C49.4466 30.3398 49.3674 30.5342 49.2299 30.6755L49.0604 30.8491C48.558 31.3622 48.2002 32.0129 48.0251 32.7311L47.9279 33.1291C47.6771 34.1018 47.14 35.0701 46.4522 35.7946C46.3139 35.9404 46.1333 36.0134 45.9526 36.0134ZM39.1446 27.5478C39.5079 27.5478 39.872 27.6951 40.1485 27.99L45.9116 34.1363C46.2034 33.7026 46.4306 33.2107 46.5536 32.7355L46.6481 32.3471C46.8489 31.5269 47.222 30.7701 47.7375 30.1324L41.775 23.7509C41.0621 24.3344 40.2089 24.7277 39.3113 24.8783C38.4581 25.0115 37.6897 25.4247 37.0811 26.0743L33.9782 29.3964C33.717 29.6754 33.726 30.04 33.8212 30.2886C33.8726 30.4214 34.0317 30.7304 34.4118 30.7334C35.1614 30.7334 35.8458 30.4318 36.3585 29.8838L38.142 27.9885C38.4178 27.6947 38.7812 27.5478 39.1446 27.5478Z" fill="url(#paint9_linear_2001_590)"/>
<path d="M26.496 39.2263C25.8137 39.2263 25.1676 38.9124 24.7229 38.3656C23.9205 37.3777 24.0046 35.8437 24.9133 34.8729L25.5761 34.1647C26.4613 33.2195 28.0044 33.2202 28.8881 34.1647L28.8937 34.1703C29.8066 35.1456 29.8066 36.7318 28.8937 37.7071L28.1544 38.4966C27.7139 38.9673 27.1248 39.2263 26.496 39.2263ZM27.2325 34.9515C26.9865 34.9515 26.7559 35.0539 26.5822 35.2394L25.9193 35.9472C25.5421 36.3501 25.4879 36.9882 25.7978 37.3695C26.1347 37.7843 26.7885 37.808 27.1484 37.4222L27.8876 36.6328C28.2454 36.25 28.2454 35.6275 27.8876 35.2446C27.6994 35.0499 27.4729 34.9515 27.2325 34.9515Z" fill="url(#paint10_linear_2001_590)"/>
<path d="M28.8069 41.6939C28.124 41.6939 27.4778 41.3796 27.0339 40.8321C26.2314 39.8453 26.3155 38.3113 27.2242 37.3405L27.8877 36.6319C28.7715 35.6882 30.3146 35.6874 31.1997 36.6319C32.1113 37.6057 32.112 39.1913 31.2018 40.1666L30.4598 40.963C30.0179 41.4345 29.4315 41.6939 28.8069 41.6939ZM29.5434 37.4191C29.2981 37.4191 29.0675 37.5211 28.8938 37.7066L28.2303 38.4152C27.853 38.8173 27.7988 39.4554 28.1087 39.8371C28.4422 40.2489 29.0883 40.2786 29.4524 39.8898L30.1937 39.0941C30.5515 38.7112 30.5515 38.0887 30.1937 37.7066C30.02 37.5211 29.7893 37.4191 29.5434 37.4191Z" fill="url(#paint11_linear_2001_590)"/>
<path d="M31.1111 44.1625C30.4226 44.1625 29.7688 43.8371 29.3179 43.2695C28.5398 42.2891 28.6266 40.7747 29.5159 39.8217L30.1898 39.0983C30.6324 38.6242 31.2209 38.363 31.8469 38.3623C31.8476 38.3623 31.8483 38.3623 31.849 38.3623C32.4742 38.3623 33.0627 38.6224 33.5053 39.0946C33.5053 39.095 33.5088 39.0987 33.5088 39.0987C34.4217 40.074 34.4217 41.6603 33.5088 42.6356L32.7695 43.425C32.3242 43.9006 31.735 44.1625 31.1111 44.1625ZM31.849 39.8818C31.603 39.8822 31.3716 39.9846 31.198 40.1704L30.524 40.8938C30.1586 41.2856 30.1044 41.9103 30.4031 42.2868C30.7457 42.7175 31.3918 42.7483 31.7635 42.3506L32.5027 41.5612C32.8605 41.1784 32.8605 40.5559 32.5027 40.173L32.4993 40.1693C32.3256 39.9838 32.0949 39.8818 31.849 39.8818Z" fill="url(#paint12_linear_2001_590)"/>
<path d="M33.423 46.6313C32.7338 46.6313 32.0793 46.3049 31.6284 45.7362C30.8489 44.7516 30.9385 43.234 31.8313 42.2798L32.5038 41.5616C33.3876 40.6179 34.9307 40.6171 35.8158 41.5616L35.3163 42.1032L35.8193 41.5657C36.2619 42.0379 36.5057 42.6664 36.505 43.3349C36.505 44.0037 36.2612 44.6325 35.8172 45.1052L35.0731 45.8953C34.6299 46.3694 34.0435 46.6313 33.423 46.6313ZM34.1595 42.3488C33.9142 42.3488 33.6836 42.4508 33.5099 42.6363L32.8373 43.3545C32.4698 43.7474 32.4142 44.3754 32.7144 44.7546C33.0541 45.1823 33.6933 45.2205 34.0685 44.8199L34.8133 44.0286C34.9863 43.8438 35.0821 43.5971 35.0821 43.3345C35.0828 43.0722 34.987 42.8259 34.8133 42.6408C34.8056 42.6322 34.7973 42.6233 34.7897 42.6144L34.7862 42.6104C34.6361 42.4512 34.4054 42.3488 34.1595 42.3488Z" fill="url(#paint13_linear_2001_590)"/>
<path d="M27.7693 9.2324H12.1598C11.7666 9.2324 11.4484 8.89222 11.4484 8.47264C11.4484 8.05307 11.7666 7.71289 12.1598 7.71289H27.7693C28.1625 7.71289 28.4807 8.05307 28.4807 8.47264C28.4807 8.89222 28.1625 9.2324 27.7693 9.2324Z" fill="url(#paint14_linear_2001_590)"/>
<path d="M27.7693 13.9053H12.1598C11.7666 13.9053 11.4484 13.5651 11.4484 13.1455C11.4484 12.7259 11.7666 12.3857 12.1598 12.3857H27.7693C28.1625 12.3857 28.4807 12.7259 28.4807 13.1455C28.4807 13.5651 28.1625 13.9053 27.7693 13.9053Z" fill="url(#paint15_linear_2001_590)"/>
<path d="M27.7693 46.6299H12.1598C11.7666 46.6299 11.4484 46.2897 11.4484 45.8701C11.4484 45.4505 11.7666 45.1104 12.1598 45.1104H27.7693C28.1625 45.1104 28.4807 45.4505 28.4807 45.8701C28.4807 46.2897 28.1625 46.6299 27.7693 46.6299Z" fill="url(#paint16_linear_2001_590)"/>
<defs>
<linearGradient id="paint0_linear_2001_590" x1="38.3838" y1="18.584" x2="39.8067" y2="18.584" gradientUnits="userSpaceOnUse">
<stop stop-color="#BF5331"/>
<stop offset="1" stop-color="#EF6A5A"/>
</linearGradient>
<linearGradient id="paint1_linear_2001_590" x1="8" y1="27.1564" x2="39.8081" y2="27.1564" gradientUnits="userSpaceOnUse">
<stop stop-color="#BF5331"/>
<stop offset="1" stop-color="#EF6A5A"/>
</linearGradient>
<linearGradient id="paint2_linear_2001_590" x1="30.3334" y1="9.26766" x2="39.8085" y2="9.26766" gradientUnits="userSpaceOnUse">
<stop stop-color="#BF5331"/>
<stop offset="1" stop-color="#EF6A5A"/>
</linearGradient>
<linearGradient id="paint3_linear_2001_590" x1="35.9875" y1="36.8543" x2="45.055" y2="36.8543" gradientUnits="userSpaceOnUse">
<stop stop-color="#BF5331"/>
<stop offset="1" stop-color="#EF6A5A"/>
</linearGradient>
<linearGradient id="paint4_linear_2001_590" x1="33.6805" y1="39.3193" x2="42.748" y2="39.3193" gradientUnits="userSpaceOnUse">
<stop stop-color="#BF5331"/>
<stop offset="1" stop-color="#EF6A5A"/>
</linearGradient>
<linearGradient id="paint5_linear_2001_590" x1="24.2589" y1="30.7366" x2="47.3491" y2="30.7366" gradientUnits="userSpaceOnUse">
<stop stop-color="#BF5331"/>
<stop offset="1" stop-color="#EF6A5A"/>
</linearGradient>
<linearGradient id="paint6_linear_2001_590" x1="33.6805" y1="41.7867" x2="40.4186" y2="41.7867" gradientUnits="userSpaceOnUse">
<stop stop-color="#BF5331"/>
<stop offset="1" stop-color="#EF6A5A"/>
</linearGradient>
<linearGradient id="paint7_linear_2001_590" x1="20.6628" y1="24.9367" x2="32.8977" y2="24.9367" gradientUnits="userSpaceOnUse">
<stop stop-color="#BF5331"/>
<stop offset="1" stop-color="#EF6A5A"/>
</linearGradient>
<linearGradient id="paint8_linear_2001_590" x1="40.7625" y1="24.611" x2="52.9971" y2="24.611" gradientUnits="userSpaceOnUse">
<stop stop-color="#BF5331"/>
<stop offset="1" stop-color="#EF6A5A"/>
</linearGradient>
<linearGradient id="paint9_linear_2001_590" x1="32.3376" y1="28.9818" x2="49.4488" y2="28.9818" gradientUnits="userSpaceOnUse">
<stop stop-color="#BF5331"/>
<stop offset="1" stop-color="#EF6A5A"/>
</linearGradient>
<linearGradient id="paint10_linear_2001_590" x1="24.1723" y1="36.3412" x2="29.5784" y2="36.3412" gradientUnits="userSpaceOnUse">
<stop stop-color="#BF5331"/>
<stop offset="1" stop-color="#EF6A5A"/>
</linearGradient>
<linearGradient id="paint11_linear_2001_590" x1="26.4832" y1="38.8088" x2="31.8839" y2="38.8088" gradientUnits="userSpaceOnUse">
<stop stop-color="#BF5331"/>
<stop offset="1" stop-color="#EF6A5A"/>
</linearGradient>
<linearGradient id="paint12_linear_2001_590" x1="28.787" y1="41.2624" x2="34.1935" y2="41.2624" gradientUnits="userSpaceOnUse">
<stop stop-color="#BF5331"/>
<stop offset="1" stop-color="#EF6A5A"/>
</linearGradient>
<linearGradient id="paint13_linear_2001_590" x1="31.098" y1="43.7424" x2="36.505" y2="43.7424" gradientUnits="userSpaceOnUse">
<stop stop-color="#BF5331"/>
<stop offset="1" stop-color="#EF6A5A"/>
</linearGradient>
<linearGradient id="paint14_linear_2001_590" x1="11.4484" y1="8.47264" x2="28.4807" y2="8.47264" gradientUnits="userSpaceOnUse">
<stop stop-color="#BF5331"/>
<stop offset="1" stop-color="#EF6A5A"/>
</linearGradient>
<linearGradient id="paint15_linear_2001_590" x1="11.4484" y1="13.1455" x2="28.4807" y2="13.1455" gradientUnits="userSpaceOnUse">
<stop stop-color="#BF5331"/>
<stop offset="1" stop-color="#EF6A5A"/>
</linearGradient>
<linearGradient id="paint16_linear_2001_590" x1="11.4484" y1="45.8701" x2="28.4807" y2="45.8701" gradientUnits="userSpaceOnUse">
<stop stop-color="#BF5331"/>
<stop offset="1" stop-color="#EF6A5A"/>
</linearGradient>
</defs>
</svg>
