<svg viewBox="0 0 53 53" fill="none" xmlns="http://www.w3.org/2000/svg">
<g id="AdobeStock_496406583 1">
<path id="Vector" d="M40.2538 3.3125H12.7462C11.8679 3.3135 11.026 3.66282 10.405 4.28382C9.78399 4.90481 9.43467 5.74678 9.43367 6.625V46.375C9.43467 47.2532 9.78399 48.0952 10.405 48.7162C11.026 49.3372 11.8679 49.6865 12.7462 49.6875H40.2538C41.1321 49.6866 41.9741 49.3373 42.5951 48.7163C43.2161 48.0952 43.5654 47.2532 43.5663 46.375V6.625C43.5654 5.74676 43.2161 4.90475 42.5951 4.28374C41.9741 3.66273 41.1321 3.31344 40.2538 3.3125ZM41.9101 46.375C41.9096 46.8141 41.7349 47.2351 41.4244 47.5456C41.1139 47.8561 40.6929 48.0307 40.2538 48.0312H12.7462C12.307 48.0308 11.886 47.8562 11.5755 47.5457C11.265 47.2351 11.0904 46.8141 11.0899 46.375V6.625C11.0904 6.18587 11.265 5.76485 11.5755 5.45434C11.886 5.14383 12.307 4.96919 12.7462 4.96875H40.2538C40.6929 4.96925 41.1139 5.14391 41.4244 5.45441C41.7349 5.76491 41.9096 6.18589 41.9101 6.625V46.375Z" fill="url(#paint0_linear_2003_2446)"/>
<path id="Vector_2" d="M15.8783 16.5265H20.2349C20.8936 16.5258 21.525 16.2638 21.9908 15.7981C22.4566 15.3323 22.7185 14.7008 22.7193 14.0421V9.68558C22.7185 9.02691 22.4566 8.39541 21.9908 7.92966C21.525 7.4639 20.8936 7.20193 20.2349 7.20121H15.8783C15.2197 7.20193 14.5882 7.4639 14.1224 7.92966C13.6566 8.39541 13.3947 9.02691 13.394 9.68558V14.0421C13.3947 14.7008 13.6566 15.3323 14.1224 15.7981C14.5882 16.2638 15.2197 16.5258 15.8783 16.5265ZM15.0502 9.68558C15.0505 9.46604 15.1378 9.25557 15.2931 9.10033C15.4483 8.94508 15.6588 8.85774 15.8783 8.85746H20.2349C20.4544 8.85774 20.6649 8.94508 20.8201 9.10033C20.9754 9.25557 21.0627 9.46604 21.063 9.68558V14.0421C21.0627 14.2617 20.9754 14.4722 20.8201 14.6274C20.6649 14.7826 20.4544 14.87 20.2349 14.8703H15.8783C15.6588 14.87 15.4483 14.7826 15.2931 14.6274C15.1378 14.4722 15.0505 14.2617 15.0502 14.0421V9.68558Z" fill="url(#paint1_linear_2003_2446)"/>
<path id="Vector_3" d="M38.7415 9.06449H25.2938C25.077 9.06883 24.8706 9.15799 24.7189 9.31283C24.5671 9.46766 24.4821 9.67583 24.4821 9.89264C24.4821 10.1094 24.5671 10.3176 24.7189 10.4724C24.8707 10.6273 25.0771 10.7164 25.2939 10.7207H38.7415C38.9583 10.7164 39.1647 10.6273 39.3165 10.4724C39.4683 10.3176 39.5533 10.1094 39.5533 9.89262C39.5533 9.67581 39.4683 9.46764 39.3165 9.31281C39.1647 9.15798 38.9583 9.06883 38.7415 9.06449Z" fill="url(#paint2_linear_2003_2446)"/>
<path id="Vector_4" d="M35.8609 14.6632C36.0777 14.659 36.2842 14.5699 36.4361 14.415C36.5879 14.2602 36.673 14.052 36.673 13.8351C36.673 13.6182 36.5879 13.41 36.4361 13.2551C36.2842 13.1003 36.0777 13.0112 35.8608 13.007H25.2938C25.077 13.0112 24.8704 13.1003 24.7186 13.2552C24.5667 13.41 24.4817 13.6183 24.4817 13.8351C24.4817 14.052 24.5668 14.2602 24.7186 14.4151C24.8705 14.5699 25.077 14.659 25.2939 14.6632H35.8609Z" fill="url(#paint3_linear_2003_2446)"/>
<path id="Vector_5" d="M38.7415 23.7006H25.2938C25.077 23.7049 24.8704 23.794 24.7186 23.9488C24.5667 24.1037 24.4817 24.3119 24.4817 24.5288C24.4817 24.7457 24.5668 24.9539 24.7186 25.1087C24.8705 25.2636 25.077 25.3527 25.2939 25.3569H38.7415C38.9583 25.3525 39.1647 25.2634 39.3165 25.1086C39.4683 24.9537 39.5533 24.7456 39.5533 24.5288C39.5533 24.3119 39.4683 24.1038 39.3165 23.949C39.1647 23.7941 38.9583 23.705 38.7415 23.7006Z" fill="url(#paint4_linear_2003_2446)"/>
<path id="Vector_6" d="M25.2938 29.2994H35.8609C36.0777 29.2951 36.2842 29.206 36.4361 29.0512C36.5879 28.8963 36.673 28.6881 36.673 28.4712C36.673 28.2543 36.5879 28.0461 36.4361 27.8913C36.2842 27.7364 36.0777 27.6473 35.8608 27.6431H25.2938C25.077 27.6475 24.8706 27.7366 24.7188 27.8914C24.5671 28.0463 24.4821 28.2544 24.4821 28.4712C24.4821 28.6881 24.5671 28.8962 24.7188 29.051C24.8706 29.2059 25.077 29.295 25.2938 29.2994Z" fill="url(#paint5_linear_2003_2446)"/>
<path id="Vector_7" d="M20.2349 36.4735H15.8783C15.2197 36.4742 14.5882 36.7362 14.1224 37.2019C13.6566 37.6677 13.3947 38.2992 13.394 38.9579V43.3144C13.3947 43.9731 13.6566 44.6046 14.1224 45.0703C14.5882 45.5361 15.2197 45.7981 15.8783 45.7988H20.2349C20.8936 45.7981 21.525 45.5361 21.9908 45.0703C22.4566 44.6046 22.7185 43.9731 22.7193 43.3144V38.9579C22.7185 38.2992 22.4566 37.6677 21.9908 37.2019C21.525 36.7362 20.8936 36.4742 20.2349 36.4735ZM21.063 43.3144C21.0627 43.534 20.9754 43.7444 20.8201 43.8997C20.6649 44.0549 20.4544 44.1423 20.2349 44.1425H15.8783C15.6588 44.1423 15.4483 44.0549 15.2931 43.8997C15.1378 43.7444 15.0505 43.534 15.0502 43.3144V38.9579C15.0505 38.7383 15.1378 38.5279 15.2931 38.3726C15.4483 38.2174 15.6588 38.13 15.8783 38.1297H20.2349C20.4544 38.13 20.6649 38.2174 20.8201 38.3726C20.9754 38.5279 21.0627 38.7383 21.063 38.9579V43.3144Z" fill="url(#paint6_linear_2003_2446)"/>
<path id="Vector_8" d="M38.7415 38.3368H25.2938C25.077 38.341 24.8704 38.4301 24.7186 38.585C24.5667 38.7398 24.4817 38.948 24.4817 39.1649C24.4817 39.3818 24.5668 39.59 24.7186 39.7449C24.8705 39.8997 25.077 39.9888 25.2939 39.993H38.7415C38.9583 39.9887 39.1647 39.8995 39.3165 39.7447C39.4683 39.5899 39.5533 39.3817 39.5533 39.1649C39.5533 38.9481 39.4683 38.7399 39.3165 38.5851C39.1647 38.4303 38.9583 38.3411 38.7415 38.3368Z" fill="url(#paint7_linear_2003_2446)"/>
<path id="Vector_9" d="M35.8609 42.2793H25.2938C25.077 42.2835 24.8704 42.3726 24.7186 42.5275C24.5667 42.6823 24.4817 42.8905 24.4817 43.1074C24.4817 43.3243 24.5668 43.5325 24.7186 43.6873C24.8705 43.8422 25.077 43.9313 25.2939 43.9355H35.8609C36.0777 43.9313 36.2843 43.8422 36.4361 43.6873C36.588 43.5325 36.673 43.3243 36.673 43.1074C36.673 42.8905 36.588 42.6823 36.4361 42.5274C36.2843 42.3726 36.0777 42.2835 35.8609 42.2793Z" fill="url(#paint8_linear_2003_2446)"/>
<path id="Vector_10" d="M25.2614 22.8555C25.4178 22.7053 25.5091 22.4998 25.5156 22.2831C25.5221 22.0663 25.4434 21.8557 25.2964 21.6963C25.1493 21.537 24.9456 21.4417 24.7291 21.4309C24.5125 21.42 24.3003 21.4946 24.1381 21.6384L22.4417 23.2045C22.2362 22.7948 21.9212 22.4502 21.5316 22.2088C21.142 21.9675 20.6932 21.8389 20.2349 21.8373H15.8783C15.2197 21.8381 14.5882 22.1 14.1224 22.5658C13.6566 23.0316 13.3947 23.663 13.394 24.3217V28.6783C13.3947 29.337 13.6566 29.9684 14.1224 30.4342C14.5882 30.9 15.2197 31.1619 15.8783 31.1626H20.2349C20.8936 31.1619 21.525 30.9 21.9908 30.4342C22.4566 29.9684 22.7185 29.337 22.7193 28.6783V25.2022L25.2614 22.8555ZM21.063 28.6783C21.0627 28.8978 20.9754 29.1083 20.8201 29.2635C20.6649 29.4188 20.4544 29.5061 20.2349 29.5064H15.8783C15.6588 29.5061 15.4483 29.4188 15.2931 29.2635C15.1378 29.1083 15.0505 28.8978 15.0502 28.6783V24.3217C15.0505 24.1022 15.1378 23.8917 15.2931 23.7365C15.4483 23.5812 15.6588 23.4939 15.8783 23.4936H20.2349C20.4544 23.4939 20.6649 23.5812 20.8201 23.7365C20.9754 23.8917 21.0627 24.1022 21.063 24.3217V24.4771L18.4941 26.8486L17.2256 25.1531C17.0938 24.9778 16.8979 24.862 16.6808 24.831C16.4637 24.8001 16.2432 24.8564 16.0676 24.9878C15.892 25.1192 15.7757 25.3148 15.7442 25.5318C15.7126 25.7488 15.7684 25.9695 15.8994 26.1454L17.7178 28.576C17.7877 28.6681 17.8761 28.7447 17.9773 28.8008C18.0784 28.857 18.1902 28.8914 18.3054 28.902C18.4206 28.9125 18.5368 28.899 18.6465 28.8622C18.7562 28.8255 18.857 28.7662 18.9425 28.6884L21.063 26.731V28.6783Z" fill="url(#paint9_linear_2003_2446)"/>
</g>
<defs>
<linearGradient id="paint0_linear_2003_2446" x1="9.43367" y1="26.5" x2="43.5663" y2="26.5" gradientUnits="userSpaceOnUse">
<stop stop-color="#BF5331"/>
<stop offset="1" stop-color="#EF6A5A"/>
</linearGradient>
<linearGradient id="paint1_linear_2003_2446" x1="13.394" y1="11.8639" x2="22.7193" y2="11.8639" gradientUnits="userSpaceOnUse">
<stop stop-color="#BF5331"/>
<stop offset="1" stop-color="#EF6A5A"/>
</linearGradient>
<linearGradient id="paint2_linear_2003_2446" x1="24.4821" y1="9.89262" x2="39.5533" y2="9.89262" gradientUnits="userSpaceOnUse">
<stop stop-color="#BF5331"/>
<stop offset="1" stop-color="#EF6A5A"/>
</linearGradient>
<linearGradient id="paint3_linear_2003_2446" x1="24.4817" y1="13.8351" x2="36.673" y2="13.8351" gradientUnits="userSpaceOnUse">
<stop stop-color="#BF5331"/>
<stop offset="1" stop-color="#EF6A5A"/>
</linearGradient>
<linearGradient id="paint4_linear_2003_2446" x1="24.4817" y1="24.5288" x2="39.5533" y2="24.5288" gradientUnits="userSpaceOnUse">
<stop stop-color="#BF5331"/>
<stop offset="1" stop-color="#EF6A5A"/>
</linearGradient>
<linearGradient id="paint5_linear_2003_2446" x1="24.4821" y1="28.4712" x2="36.673" y2="28.4712" gradientUnits="userSpaceOnUse">
<stop stop-color="#BF5331"/>
<stop offset="1" stop-color="#EF6A5A"/>
</linearGradient>
<linearGradient id="paint6_linear_2003_2446" x1="13.394" y1="41.1361" x2="22.7193" y2="41.1361" gradientUnits="userSpaceOnUse">
<stop stop-color="#BF5331"/>
<stop offset="1" stop-color="#EF6A5A"/>
</linearGradient>
<linearGradient id="paint7_linear_2003_2446" x1="24.4817" y1="39.1649" x2="39.5533" y2="39.1649" gradientUnits="userSpaceOnUse">
<stop stop-color="#BF5331"/>
<stop offset="1" stop-color="#EF6A5A"/>
</linearGradient>
<linearGradient id="paint8_linear_2003_2446" x1="24.4817" y1="43.1074" x2="36.673" y2="43.1074" gradientUnits="userSpaceOnUse">
<stop stop-color="#BF5331"/>
<stop offset="1" stop-color="#EF6A5A"/>
</linearGradient>
<linearGradient id="paint9_linear_2003_2446" x1="13.394" y1="26.2962" x2="25.516" y2="26.2962" gradientUnits="userSpaceOnUse">
<stop stop-color="#BF5331"/>
<stop offset="1" stop-color="#EF6A5A"/>
</linearGradient>
</defs>
</svg>
