<svg width="18" height="15" viewBox="0 0 18 15" fill="none" xmlns="http://www.w3.org/2000/svg">
<path d="M14.3223 14.7937C14.1308 14.7937 13.9393 14.7157 13.7931 14.56L7.15909 7.48487L5.28662 9.47746C4.46587 10.3543 3.3703 10.8378 2.20458 10.8378C1.28296 10.8308 0.51921 10.2712 0.175705 9.37755C-0.179494 8.45151 0.0134537 7.40175 0.667575 6.70282L3.92941 3.21014C4.80206 2.27941 5.90128 1.68897 7.11159 1.5001C7.98643 1.35297 8.8123 0.904194 9.42988 0.237268C9.57021 0.0858536 9.76096 0.000390259 9.96049 0H9.96195C10.1607 0 10.3515 0.0842927 10.4918 0.234927L17.7814 8.03746C17.9232 8.18926 18.0022 8.3957 18 8.61073C17.9978 8.82536 17.9145 9.02985 17.7697 9.17853L17.5914 9.36116C17.063 9.90087 16.6866 10.5854 16.5024 11.3409L16.4001 11.7596C16.1363 12.7828 15.5713 13.8014 14.8478 14.5635C14.7023 14.7169 14.5123 14.7937 14.3223 14.7937ZM7.16055 5.88839C7.54279 5.88839 7.92577 6.04331 8.21665 6.35356L14.2791 12.8191C14.5861 12.3629 14.8251 11.8455 14.9545 11.3456L15.0539 10.937C15.2651 10.0741 15.6576 9.27804 16.1999 8.60721L9.9276 1.89424C9.17773 2.5081 8.28023 2.92175 7.33596 3.08019C6.43846 3.22029 5.63013 3.65502 4.98989 4.33834L1.72586 7.83297C1.45106 8.12643 1.46056 8.51004 1.56069 8.77151C1.61477 8.91121 1.78214 9.23629 2.18192 9.23941C2.97052 9.23941 3.69042 8.92214 4.2298 8.34575L6.10592 6.352C6.39607 6.04292 6.77831 5.88839 7.16055 5.88839Z" fill="url(#paint0_linear_0_244)"/>
<defs>
<linearGradient id="paint0_linear_0_244" x1="0" y1="7.39687" x2="18" y2="7.39687" gradientUnits="userSpaceOnUse">
<stop stop-color="#BF5331"/>
<stop offset="1" stop-color="#EF6A5A"/>
</linearGradient>
</defs>
</svg>
