<svg width="32" height="47" viewBox="0 0 32 47" fill="none" xmlns="http://www.w3.org/2000/svg">
<path d="M30.0457 46.5922H1.95431C0.876502 46.5922 0 45.6558 0 44.5052V2.08215C0 0.93415 0.875104 0 1.95011 0H23.1833C23.5789 0 23.899 0.342236 23.899 0.764338C23.899 1.18644 23.5789 1.52868 23.1833 1.52868H1.95011C1.66424 1.52868 1.43148 1.77686 1.43148 2.08215V44.5052C1.43148 44.8131 1.66633 45.0635 1.95431 45.0635H30.0457C30.3337 45.0635 30.5685 44.8131 30.5685 44.5052V41.9901C30.5685 41.568 30.8887 41.2258 31.2843 41.2258C31.6799 41.2258 32 41.568 32 41.9901V44.5052C32 45.6558 31.1235 46.5922 30.0457 46.5922Z" fill="url(#paint0_linear_0_226)"/>
<defs>
<linearGradient id="paint0_linear_0_226" x1="0" y1="23.2961" x2="32" y2="23.2961" gradientUnits="userSpaceOnUse">
<stop stop-color="#BF5331"/>
<stop offset="1" stop-color="#EF6A5A"/>
</linearGradient>
</defs>
</svg>
