<svg width="7" height="10" viewBox="0 0 7 10" fill="none" xmlns="http://www.w3.org/2000/svg">
<path d="M4.55438 10.0003C3.9097 10.0003 3.30159 9.72992 2.84263 9.23866L1.53247 7.8403C1.24562 7.53436 1.24562 7.03774 1.53247 6.73142C1.81931 6.42511 2.284 6.42511 2.57085 6.73142L3.88101 8.13016C4.26395 8.53948 4.92943 8.51191 5.29086 8.05856C5.59491 7.67106 5.53898 7.02395 5.16249 6.62116L0.215134 1.33863C-0.0717112 1.03269 -0.0717112 0.536063 0.215134 0.229741C0.501979 -0.0765804 0.966668 -0.0765804 1.25351 0.229741L6.20087 5.51226C7.11734 6.49172 7.21057 8.05511 6.41242 9.07133C5.93913 9.66368 5.26361 10.0003 4.55438 10.0003Z" fill="url(#paint0_linear_0_238)"/>
<defs>
<linearGradient id="paint0_linear_0_238" x1="0" y1="5.00013" x2="6.9547" y2="5.00013" gradientUnits="userSpaceOnUse">
<stop stop-color="#BF5331"/>
<stop offset="1" stop-color="#EF6A5A"/>
</linearGradient>
</defs>
</svg>
