<svg width="6" height="6" viewBox="0 0 6 6" fill="none" xmlns="http://www.w3.org/2000/svg">
<path d="M2.40428 6.00038C1.69199 6.00038 1.01564 5.66381 0.549171 5.07663C-0.255834 4.0623 -0.16599 2.49571 0.754016 1.50979L1.45121 0.761417C1.90906 0.270948 2.51784 0.000767587 3.16544 0C3.16616 0 3.16688 0 3.16759 0C3.81447 0 4.42326 0.269029 4.88111 0.757579C4.88111 0.757963 4.8847 0.761801 4.8847 0.761801C5.82914 1.77076 5.82914 3.41179 4.8847 4.42075L4.11994 5.23743C3.65922 5.72943 3.04972 6.00038 2.40428 6.00038ZM3.16759 1.57196C2.91316 1.57234 2.67381 1.67826 2.49412 1.87054L1.79693 2.61891C1.41886 3.02418 1.3628 3.67046 1.67187 4.06C2.02621 4.50556 2.69465 4.53742 3.07919 4.12601L3.84394 3.30932C4.2141 2.91327 4.2141 2.26928 3.84394 1.87322L3.84035 1.86939C3.66066 1.6775 3.42203 1.57196 3.16759 1.57196Z" fill="url(#paint0_linear_0_252)"/>
<defs>
<linearGradient id="paint0_linear_0_252" x1="0" y1="3.00019" x2="5.59303" y2="3.00019" gradientUnits="userSpaceOnUse">
<stop stop-color="#BF5331"/>
<stop offset="1" stop-color="#EF6A5A"/>
</linearGradient>
</defs>
</svg>
