<svg width="10" height="10" viewBox="0 0 10 10" fill="none" xmlns="http://www.w3.org/2000/svg">
<path d="M6.94371 9.99993C6.29727 9.99993 5.68885 9.731 5.23254 9.24217L0.215242 3.88535C-0.0717474 3.57926 -0.0717474 3.08238 0.215242 2.77591C0.502232 2.46943 0.967155 2.46943 1.25414 2.77591L6.27144 8.13311C6.63161 8.51697 7.25582 8.51659 7.61599 8.13349C7.79606 7.94118 7.89437 7.68604 7.89437 7.41481C7.89437 7.14396 7.79606 6.88882 7.61599 6.69727L2.59941 1.3393C2.31242 1.03282 2.31242 0.536333 2.59941 0.229857C2.8864 -0.076619 3.35132 -0.076619 3.63831 0.229857L8.65489 5.58744C9.11192 6.0755 9.36375 6.72447 9.36375 7.41481C9.36375 8.10553 9.11192 8.75449 8.65489 9.24294C8.19858 9.731 7.59016 9.99993 6.94371 9.99993Z" fill="url(#paint0_linear_0_234)"/>
<defs>
<linearGradient id="paint0_linear_0_234" x1="0" y1="4.99997" x2="9.36375" y2="4.99997" gradientUnits="userSpaceOnUse">
<stop stop-color="#BF5331"/>
<stop offset="1" stop-color="#EF6A5A"/>
</linearGradient>
</defs>
</svg>
