<svg width="6" height="6" viewBox="0 0 6 6" fill="none" xmlns="http://www.w3.org/2000/svg">
<path d="M2.41468 6.0005C1.6989 6.0005 1.0192 5.66146 0.550917 5.07084C-0.258661 4.04833 -0.165581 2.47219 0.76161 1.48127L1.46007 0.735386C2.37788 -0.244743 3.98044 -0.245514 4.89969 0.735386L4.3809 1.29788L4.9033 0.739624C5.36293 1.23007 5.61619 1.88272 5.61547 2.57698C5.61547 3.27162 5.36221 3.92466 4.90114 4.41549L4.12836 5.23612C3.66801 5.7285 3.05902 6.0005 2.41468 6.0005ZM3.17952 1.55293C2.92481 1.55293 2.68526 1.65888 2.50487 1.85152L1.80641 2.5974C1.42471 3.0054 1.36699 3.65767 1.6787 4.05141C2.03154 4.49563 2.69536 4.53531 3.085 4.11922L3.8585 3.29744C4.03816 3.10557 4.13774 2.84937 4.13774 2.5766C4.13846 2.30421 4.03889 2.04839 3.8585 1.85614C3.85056 1.84728 3.8419 1.83803 3.83397 1.82878L3.83036 1.82455C3.6745 1.65927 3.43495 1.55293 3.17952 1.55293Z" fill="url(#paint0_linear_0_254)"/>
<defs>
<linearGradient id="paint0_linear_0_254" x1="0" y1="3.00025" x2="5.61547" y2="3.00025" gradientUnits="userSpaceOnUse">
<stop stop-color="#BF5331"/>
<stop offset="1" stop-color="#EF6A5A"/>
</linearGradient>
</defs>
</svg>
