<svg width="24" height="17" viewBox="0 0 24 17" fill="none" xmlns="http://www.w3.org/2000/svg">
<path d="M20.7812 16.9996C20.1609 16.9996 19.5553 16.7326 19.1193 16.2666L14.2579 11.0752C13.9798 10.7782 13.9798 10.297 14.2579 9.99995C14.5361 9.70292 14.9867 9.70292 15.2648 9.99995L20.1262 15.1914C20.5246 15.6169 21.2638 15.5322 21.5684 15.008C21.7874 14.633 21.6949 14.0771 21.3549 13.7144L14.8984 6.82799L13.1161 8.7227C12.3352 9.55737 11.2929 10.0174 10.1837 10.0174C9.30687 10.0107 8.58021 9.47829 8.25338 8.62802C7.91543 7.74694 8.09901 6.74816 8.72137 6.08318L11.2838 3.34266C10.9834 3.19451 10.6705 3.08684 10.3541 3.02409C9.29992 2.81505 8.4008 2.40291 7.67553 1.79771L1.70854 8.17764C2.26693 8.84263 2.67094 9.64462 2.88372 10.5094L2.97273 10.8725C3.0381 11.1369 3.13197 11.402 3.25297 11.6596C3.42889 12.0354 3.28634 12.4921 2.93449 12.68C2.58263 12.8682 2.15567 12.7152 1.97904 12.3398C1.81494 11.989 1.6856 11.6255 1.5952 11.2594L1.5055 10.8948C1.33861 10.2127 1.00691 9.5841 0.547274 9.07729L0.200979 8.69634C-0.0695209 8.39819 -0.0667394 7.92331 0.207932 7.62961L7.13523 0.22305C7.40294 -0.0624751 7.8306 -0.0750991 8.11292 0.192232L8.37716 0.443227C8.94389 0.981603 9.69698 1.34696 10.6142 1.52852C11.409 1.68632 12.185 2.04981 12.8581 2.57965C13.0375 2.72037 13.1446 2.9424 13.1481 3.17966C13.1516 3.41692 13.0515 3.64229 12.8769 3.78895L9.72827 7.15844C9.46681 7.43766 9.47585 7.80264 9.57111 8.0514C9.62257 8.18433 9.78181 8.49362 10.1622 8.49659C10.9125 8.49659 11.5974 8.19472 12.1106 7.64632L13.8942 5.7505C14.4485 5.16051 15.351 5.16125 15.9053 5.75198L22.3618 12.6384C23.1712 13.502 23.3464 14.8364 22.7776 15.8111C22.3451 16.5548 21.5983 16.9996 20.7812 16.9996Z" fill="url(#paint0_linear_0_236)"/>
<defs>
<linearGradient id="paint0_linear_0_236" x1="0" y1="8.49979" x2="23.1102" y2="8.49979" gradientUnits="userSpaceOnUse">
<stop stop-color="#BF5331"/>
<stop offset="1" stop-color="#EF6A5A"/>
</linearGradient>
</defs>
</svg>
