<svg width="13" height="14" viewBox="0 0 13 14" fill="none" xmlns="http://www.w3.org/2000/svg">
<path d="M9.17827 13.9007C8.69325 13.9007 8.23776 13.6989 7.89522 13.3327L0.52839 5.45466C-0.176622 4.6998 -0.175884 3.47311 0.529129 2.71944L2.84718 0.237296C2.98892 0.0855369 3.18086 0 3.38166 0C3.58246 0 3.77514 0.0851428 3.91688 0.236508L12.7786 9.69997C13.0732 10.0145 13.0739 10.5242 12.7801 10.8395L10.4643 13.3292C10.1217 13.6977 9.64188 13.9189 9.17827 13.9007ZM3.38314 1.94961L1.59883 3.8602C1.48145 3.98555 1.48219 4.18894 1.59883 4.31429L8.96565 12.192C9.04169 12.274 9.13176 12.2862 9.17827 12.2862C9.18785 12.2881 9.31484 12.2751 9.39235 12.1912L11.1767 10.2727L3.38314 1.94961Z" fill="url(#paint0_linear_0_242)"/>
<defs>
<linearGradient id="paint0_linear_0_242" x1="0" y1="6.95089" x2="13" y2="6.95089" gradientUnits="userSpaceOnUse">
<stop stop-color="#BF5331"/>
<stop offset="1" stop-color="#EF6A5A"/>
</linearGradient>
</defs>
</svg>
