<svg width="6" height="6" viewBox="0 0 6 6" fill="none" xmlns="http://www.w3.org/2000/svg">
<path d="M2.41612 5.9997C1.70672 5.9997 1.03489 5.67337 0.572547 5.10481C-0.261829 4.07762 -0.174419 2.48264 0.770486 1.47319L1.45966 0.736836C2.38 -0.245998 3.98446 -0.245226 4.90336 0.736836L4.90914 0.742622C5.85837 1.7567 5.85837 3.40607 4.90914 4.42015L4.1405 5.24097C3.68249 5.73046 3.0699 5.9997 2.41612 5.9997ZM3.18187 1.55496C2.92614 1.55496 2.6863 1.66142 2.5057 1.85429L1.81653 2.59026C1.42426 3.00916 1.36791 3.67261 1.69011 4.06913C2.04047 4.50038 2.72025 4.52506 3.09446 4.12391L3.8631 3.30308C4.23513 2.90501 4.23513 2.25776 3.8631 1.85969C3.66732 1.65718 3.43182 1.55496 3.18187 1.55496Z" fill="url(#paint0_linear_0_248)"/>
<defs>
<linearGradient id="paint0_linear_0_248" x1="0" y1="2.99985" x2="5.62107" y2="2.99985" gradientUnits="userSpaceOnUse">
<stop stop-color="#BF5331"/>
<stop offset="1" stop-color="#EF6A5A"/>
</linearGradient>
</defs>
</svg>
