<svg width="13" height="14" viewBox="0 0 13 14" fill="none" xmlns="http://www.w3.org/2000/svg">
<path d="M3.82242 13.9005C3.82168 13.9005 3.82021 13.9005 3.81947 13.9005C3.33446 13.8997 2.87824 13.6971 2.53644 13.3294L0.219899 10.8398C-0.0739137 10.524 -0.0731754 10.0144 0.221375 9.69982L9.08299 0.236504C9.22473 0.0851415 9.41667 0 9.61746 0C9.81752 0 10.0109 0.0855356 10.1527 0.237292L12.4722 2.72019C13.1764 3.47464 13.1757 4.70131 12.4714 5.45497L5.10471 13.3329C4.76218 13.6991 4.3067 13.9005 3.82242 13.9005ZM1.82332 10.2726L3.60834 12.191C3.68511 12.2738 3.77518 12.286 3.82168 12.286C3.86819 12.286 3.95825 12.2738 4.03503 12.1918L11.401 4.31423C11.5184 4.18888 11.5184 3.98509 11.4017 3.86014L9.61673 1.94958L1.82332 10.2726Z" fill="url(#paint0_linear_0_240)"/>
<defs>
<linearGradient id="paint0_linear_0_240" x1="0" y1="6.95026" x2="13" y2="6.95026" gradientUnits="userSpaceOnUse">
<stop stop-color="#BF5331"/>
<stop offset="1" stop-color="#EF6A5A"/>
</linearGradient>
</defs>
</svg>
