<svg width="6" height="6" viewBox="0 0 6 6" fill="none" xmlns="http://www.w3.org/2000/svg">
<path d="M2.41612 5.99951C1.706 5.99951 1.03416 5.67279 0.572547 5.10346C-0.261829 4.07743 -0.174419 2.48244 0.770486 1.473L1.46038 0.736257C2.37928 -0.245033 3.98374 -0.245805 4.90408 0.736257C5.85187 1.74879 5.8526 3.39739 4.90625 4.41147L4.13472 5.23962C3.67527 5.72988 3.06556 5.99951 2.41612 5.99951ZM3.18187 1.55477C2.92686 1.55477 2.68702 1.66085 2.50642 1.85371L1.81653 2.59045C1.42426 3.00858 1.36791 3.67203 1.69011 4.06894C2.03686 4.4971 2.7087 4.52796 3.08723 4.12371L3.85804 3.29633C4.23008 2.89826 4.23008 2.25101 3.85804 1.85371C3.67744 1.66085 3.4376 1.55477 3.18187 1.55477Z" fill="url(#paint0_linear_0_250)"/>
<defs>
<linearGradient id="paint0_linear_0_250" x1="0" y1="2.99975" x2="5.61547" y2="2.99975" gradientUnits="userSpaceOnUse">
<stop stop-color="#BF5331"/>
<stop offset="1" stop-color="#EF6A5A"/>
</linearGradient>
</defs>
</svg>
