<svg width="10" height="10" viewBox="0 0 10 10" fill="none" xmlns="http://www.w3.org/2000/svg">
<path d="M6.94371 9.99955C6.29727 9.99955 5.68885 9.731 5.23182 9.24294L0.215242 3.88497C-0.0717474 3.57849 -0.0717474 3.082 0.215242 2.77552C0.502232 2.46905 0.967155 2.46905 1.25414 2.77552L6.27072 8.13311C6.62946 8.5162 7.25725 8.51697 7.61598 8.13311C7.79607 7.94118 7.89437 7.68604 7.89437 7.41481C7.89437 7.14357 7.79607 6.88843 7.61598 6.69689L2.59941 1.3393C2.31242 1.03282 2.31242 0.536333 2.59941 0.229857C2.8864 -0.076619 3.35132 -0.076619 3.63831 0.229857L8.65489 5.58706C9.11192 6.07512 9.36375 6.72409 9.36375 7.41481C9.36375 8.10553 9.11192 8.75449 8.65489 9.24294C8.19786 9.73062 7.59016 9.99955 6.94371 9.99955Z" fill="url(#paint0_linear_0_232)"/>
<defs>
<linearGradient id="paint0_linear_0_232" x1="0" y1="4.99977" x2="9.36375" y2="4.99977" gradientUnits="userSpaceOnUse">
<stop stop-color="#BF5331"/>
<stop offset="1" stop-color="#EF6A5A"/>
</linearGradient>
</defs>
</svg>
